<svg xmlns:rdf="http://www.w3.org/1999/02/22-rdf-syntax-ns#" xmlns="http://www.w3.org/2000/svg" xml:space="preserve" height="410" width="842" version="1.1" y="0px" x="0px" xmlns:cc="http://creativecommons.org/ns#" xmlns:xlink="http://www.w3.org/1999/xlink" viewBox="123 123.6 841.99998 410.00001" xmlns:dc="http://purl.org/dc/elements/1.1/">
  <defs>
    <linearGradient id="a" gradientUnits="userSpaceOnUse">
      <stop stop-color="#ed9121" offset=".57"/>
      <stop stop-color="#39538d" stop-opacity="0" offset="1"/>
    </linearGradient>
    <linearGradient id="f" y2="1043" xlink:href="#a" gradientUnits="userSpaceOnUse" x2="495.8" gradientTransform="scale(1.911 .5234)" y1="1043" x1="455.3"/>
    <linearGradient id="e" y2="858.1" xlink:href="#a" gradientUnits="userSpaceOnUse" x2="525.8" gradientTransform="scale(1.802 .5548)" y1="858.1" x1="487.4"/>
    <linearGradient id="d" y2="730.9" xlink:href="#a" gradientUnits="userSpaceOnUse" x2="525.2" gradientTransform="scale(1.804 .5544)" y1="730.9" x1="486.8"/>
    <linearGradient id="c" y2="468.9" xlink:href="#a" gradientUnits="userSpaceOnUse" x2="534.2" gradientTransform="matrix(1.801 0 0 .5544 .9305 0)" y1="468.9" x1="495.8"/>
    <linearGradient id="b" y2="405.1" xlink:href="#a" gradientUnits="userSpaceOnUse" x2="534.2" gradientTransform="matrix(1.801 0 0 .5544 .9305 0)" y1="405.1" x1="495.8"/>
  </defs>
  <style type="text/css"/>
  <g transform="matrix(0 1.08 -1 0 1249 -1.854)">
    <path stroke-linejoin="round" d="m156.9 539.3h333.4" class="st0" stroke="#ed2939" stroke-linecap="round" stroke-miterlimit="3" stroke-dasharray="7, 5" fill="none"/>
  </g>
  <g transform="matrix(0 1.08 -1 0 1357 -1.849)">
    <path stroke-linejoin="round" d="m156.9 539.3h333.4" class="st0" stroke="#ed2939" stroke-linecap="round" stroke-miterlimit="3" stroke-dasharray="7, 5" fill="none"/>
  </g>
  <g stroke="#ed9121" fill="none">
    <g transform="matrix(0 -1 1 0 -333.2 138.2)">
      <path stroke-linejoin="round" d="m-157.2 651.3h134.6" class="st1" stroke="#ed9121" stroke-linecap="round" stroke-miterlimit="3" stroke-dasharray="2.1, 1.50000000000000000" stroke-width="0.3" fill="none"/>
    </g>
    <g transform="matrix(0 1 -1 0 808 3.579)">
      <path stroke-linejoin="round" d="m157.2 539.3h28.3" class="st1" stroke="#ed9121" stroke-linecap="round" stroke-miterlimit="3" stroke-dasharray="2.1, 1.50000000000000000" stroke-width="0.3" fill="none"/>
    </g>
    <g transform="matrix(0 -1 1 0 -316.2 315.4)">
      <path stroke-linejoin="round" d="m-157.2 651.3h311.8" class="st1" stroke="#ed9121" stroke-linecap="round" stroke-miterlimit="3" stroke-dasharray="2.1, 1.50000000000000000" stroke-width="0.3" fill="none"/>
    </g>
    <g transform="matrix(0 -1 1 0 -299.8 209.1)">
      <path stroke-linejoin="round" d="m-157.2 651.3h205.5" class="st1" stroke="#ed9121" stroke-linecap="round" stroke-miterlimit="3" stroke-dasharray="2.1, 1.50000000000000000" stroke-width="0.3" fill="none"/>
    </g>
    <g transform="matrix(0 -1 1 0 -265.8 280)">
      <path stroke-linejoin="round" d="m-157.2 651.3h276.4" class="st1" stroke="#ed9121" stroke-linecap="round" stroke-miterlimit="3" stroke-dasharray="2.1, 1.50000000000000000" stroke-width="0.3" fill="none"/>
    </g>
    <g transform="matrix(0 -1 1 0 -63.93 315.4)">
      <path stroke-linejoin="round" d="m-157.2 651.3h311.8" class="st1" stroke="#ed9121" stroke-linecap="round" stroke-miterlimit="3" stroke-dasharray="2.1, 1.50000000000000000" stroke-width="0.3" fill="none"/>
    </g>
  </g>
  <g transform="matrix(0 -1 1 0 -25.38 349.4)" stroke="#ed9121">
    <path stroke-linejoin="round" d="m-157.2 651.3h345.8" class="st1" stroke="#ed9121" stroke-linecap="round" stroke-miterlimit="3" stroke-dasharray="2.1, 1.50000000000000000" stroke-width="0.3" fill="none"/>
  </g>
  <g fill="#625986">
    <path fill="#fff" d="m196.5 191.9h5.704v2.408h-1.406v8.508h1.406v2.408h-5.704v-2.408h1.38v-8.508h-1.38v-2.408z"/>
  </g>
  <g fill="#fff">
    <path d="m193 227.3h5.704v2.408h-1.406v8.508h1.406v2.408h-5.704v-2.408h1.38v-8.508h-1.38v-2.408z"/>
    <path d="m200.7 227.3h5.704v2.408h-1.406v8.508h1.406v2.408h-5.704v-2.408h1.38v-8.508h-1.38v-2.408z"/>
  </g>
  <g fill="#fff">
    <path d="m189.5 262.8h5.704v2.408h-1.406v8.508h1.406v2.408h-5.704v-2.408h1.38v-8.508h-1.38v-2.408z"/>
    <path d="m197.2 262.8h5.704v2.408h-1.406v8.508h1.406v2.408h-5.704v-2.408h1.38v-8.508h-1.38v-2.408z"/>
    <path d="m204.9 262.8h5.704v2.408h-1.406v8.508h1.406v2.408h-5.704v-2.408h1.38v-8.508h-1.38v-2.408z"/>
  </g>
  <g fill="#fff">
    <path d="m190 298.2h5.704v2.408h-1.406v8.508h1.406v2.408h-5.704v-2.408h1.38v-8.508h-1.38v-2.408z"/>
    <path d="m204.3 298.2h5.704v2.417h-1.187l-3.56 10.91h-3.604l-3.454-10.91h-1.283v-2.417h5.713v2.417h-1.424l2.32 7.559 2.312-7.559h-1.538v-2.417z"/>
  </g>
  <g fill="#625986">
    <path fill="#fff" d="m200.1 333.6h5.704v2.417h-1.187l-3.56 10.91h-3.604l-3.454-10.91h-1.283v-2.417h5.713v2.417h-1.424l2.32 7.559 2.312-7.559h-1.538v-2.417z"/>
  </g>
  <g fill="#fff">
    <path d="m196.6 369.1h5.704v2.417h-1.187l-3.56 10.91h-3.604l-3.454-10.91h-1.283v-2.417h5.713v2.417h-1.424l2.32 7.559 2.312-7.559h-1.538v-2.417z"/>
    <path d="m203.5 369.1h5.704v2.408h-1.406v8.508h1.406v2.408h-5.704v-2.408h1.38v-8.508h-1.38v-2.408z"/>
  </g>
  <rect class="st6" height="21.3" width="82.8" stroke-miterlimit="3" y="189.1" x="268.7" fill="#ed9121"/>
  <rect class="st7" height="21.3" width="560.3" stroke-miterlimit="3" y="224.6" x="335.1" fill="#ed9121"/>
  <g fill="#fff">
    <path d="m353.2 231.9q-1.006 0-1.582 0.7129-0.5762 0.7129-0.5762 1.968 0 1.313 0.5518 1.987 0.5566 0.6738 1.606 0.6738 0.4541 0 0.8789-0.0879 0.4248-0.0928 0.8838-0.2344v1.001q-0.8398 0.3174-1.904 0.3174-1.567 0-2.407-0.9473-0.8398-0.9522-0.8398-2.72 0-1.113 0.4053-1.948 0.4102-0.835 1.182-1.279 0.7715-0.4443 1.812-0.4443 1.094 0 2.021 0.459l-0.4199 0.9717q-0.3613-0.1709-0.7666-0.2978-0.4004-0.1318-0.8447-0.1318z"/>
    <path d="m361.2 235.5q0 1.323-0.6787 2.065-0.6787 0.7422-1.89 0.7422-0.7568 0-1.338-0.3418-0.5811-0.3418-0.8936-0.9814t-0.3125-1.484q0-1.313 0.6738-2.051 0.6738-0.7373 1.899-0.7373 1.172 0 1.855 0.7568 0.6836 0.752 0.6836 2.031zm-3.931 0q0 1.87 1.382 1.87 1.367 0 1.367-1.87 0-1.851-1.377-1.851-0.7226 0-1.05 0.4785-0.3223 0.4785-0.3223 1.372z"/>
    <path d="m367.3 238.2h-1.152v-3.32q0-0.625-0.2539-0.9326-0.249-0.3076-0.7959-0.3076-0.7275 0-1.064 0.4297-0.3369 0.4297-0.3369 1.44v2.69h-1.147v-5.4h0.8984l0.1611 0.708h0.0586q0.2441-0.3858 0.6934-0.5957 0.4492-0.21 0.9961-0.21 1.943 0 1.943 1.978v3.521z"/>
    <path d="m371.1 238.3q-1.226 0-1.865-0.7129-0.6348-0.7178-0.6348-2.056 0-1.362 0.6641-2.095 0.669-0.7324 1.929-0.7324 0.8545 0 1.538 0.3174l-0.3467 0.9228q-0.7275-0.2832-1.201-0.2832-1.401 0-1.401 1.86 0 0.9082 0.3467 1.367 0.3516 0.4541 1.025 0.4541 0.7666 0 1.45-0.3809v1.001q-0.3076 0.1807-0.6592 0.2588-0.3467 0.0781-0.8447 0.0781z"/>
    <path d="m376.2 238.3q-1.26 0-1.973-0.7324-0.708-0.7373-0.708-2.026 0-1.323 0.6592-2.08 0.6592-0.7568 1.812-0.7568 1.069 0 1.689 0.6494 0.6201 0.6494 0.6201 1.787v0.6201h-3.599q0.0244 0.7861 0.4248 1.211 0.4004 0.4199 1.128 0.4199 0.4785 0 0.8887-0.0879 0.415-0.0928 0.8887-0.3027v0.9326q-0.4199 0.2002-0.8496 0.2832t-0.9814 0.083zm-0.21-4.727q-0.5469 0-0.8789 0.3467-0.3271 0.3467-0.3906 1.011h2.451q-0.01-0.6689-0.3223-1.011-0.3125-0.3467-0.8594-0.3467z"/>
    <path d="m382.4 238.3q-1.025 0-1.592-0.7373h-0.0684q0.0684 0.6836 0.0684 0.8301v2.212h-1.147v-7.803h0.9277q0.0391 0.1514 0.1611 0.7226h0.0586q0.5371-0.8203 1.611-0.8203 1.011 0 1.572 0.7324 0.5664 0.7324 0.5664 2.056 0 1.323-0.5762 2.065-0.5713 0.7422-1.582 0.7422zm-0.2783-4.658q-0.6836 0-1.001 0.4004-0.3125 0.4004-0.3125 1.279v0.1709q0 0.9863 0.3125 1.431 0.3125 0.4395 1.021 0.4395 0.5957 0 0.918-0.4883t0.3223-1.392q0-0.9082-0.3223-1.372-0.3174-0.4688-0.9375-0.4688z"/>
    <path d="m387.9 237.3q0.4199 0 0.8398-0.1318v0.8642q-0.1904 0.083-0.4932 0.1367-0.2978 0.0586-0.6201 0.0586-1.631 0-1.631-1.719v-2.91h-0.7373v-0.5078l0.791-0.4199 0.3906-1.143h0.708v1.201h1.538v0.8691h-1.538v2.891q0 0.415 0.2051 0.6152 0.21 0.1953 0.5469 0.1953z"/>
    <path d="m393.4 236.6q0 0.791-0.5762 1.216-0.5762 0.4199-1.65 0.4199-1.079 0-1.733-0.3272v-0.9912q0.9522 0.4394 1.772 0.4394 1.06 0 1.06-0.6396 0-0.2051-0.1172-0.3418t-0.3857-0.2832q-0.2686-0.1465-0.7471-0.332-0.9326-0.3613-1.265-0.7227-0.3271-0.3613-0.3271-0.9375 0-0.6934 0.5566-1.074 0.5615-0.3857 1.523-0.3857 0.9522 0 1.802 0.3857l-0.3711 0.8643q-0.874-0.3613-1.47-0.3613-0.9082 0-0.9082 0.5176 0 0.2539 0.2344 0.4297 0.2393 0.1758 1.035 0.4834 0.6689 0.2588 0.9717 0.4736 0.3027 0.2148 0.4492 0.498 0.1465 0.2783 0.1465 0.6689z"/>
  </g>
  <rect class="st7" height="21.3" width="269.4" stroke-miterlimit="3" y="260" x="625.9" fill="#ed9121"/>
  <g fill="#fff">
    <path d="m643.9 269.7h2.627v3.584q-0.6445 0.21-1.24 0.2978-0.5908 0.0879-1.279 0.0879-1.621 0-2.5-0.957-0.8789-0.9619-0.8789-2.71 0-1.724 0.9912-2.695 0.9912-0.9766 2.729-0.9766 1.118 0 2.119 0.4297l-0.4102 0.9717q-0.8692-0.4004-1.738-0.4004-1.143 0-1.807 0.7178-0.6641 0.7178-0.6641 1.963 0 1.309 0.5957 1.992 0.6006 0.6787 1.724 0.6787 0.5664 0 1.211-0.1416v-1.841h-1.479v-1.001z"/>
    <path d="m651.5 273.6-0.2295-0.752h-0.0391q-0.3906 0.4932-0.7861 0.6738-0.3955 0.1758-1.016 0.1758-0.7959 0-1.245-0.4297-0.4443-0.4297-0.4443-1.216 0-0.835 0.6201-1.26 0.6201-0.4248 1.89-0.4639l0.9326-0.0293v-0.2881q0-0.5176-0.2441-0.7715-0.2393-0.2588-0.7471-0.2588-0.415 0-0.7959 0.1221t-0.7324 0.2881l-0.3711-0.8203q0.4395-0.2295 0.9619-0.3467 0.5225-0.1221 0.9863-0.1221 1.03 0 1.553 0.4492 0.5273 0.4492 0.5273 1.411v3.638h-0.8203zm-1.709-0.7812q0.625 0 1.001-0.3467 0.3809-0.3516 0.3809-0.9814v-0.4688l-0.6934 0.0293q-0.8105 0.0293-1.182 0.2734-0.3662 0.2393-0.3662 0.7373 0 0.3613 0.2148 0.5615 0.2148 0.1953 0.6445 0.1953z"/>
    <path d="m658.5 273.6h-1.152v-3.33q0-0.6201-0.2344-0.9228-0.2344-0.3076-0.7324-0.3076-0.6641 0-0.9766 0.4346-0.3076 0.4297-0.3076 1.436v2.69h-1.147v-5.4h0.8984l0.1611 0.708h0.0586q0.2246-0.3858 0.6494-0.5957 0.4297-0.21 0.9424-0.21 1.245 0 1.65 0.8496h0.0781q0.2393-0.4004 0.6738-0.625 0.4346-0.2246 0.9961-0.2246 0.9668 0 1.406 0.4883 0.4443 0.4883 0.4443 1.489v3.521h-1.147v-3.33q0-0.6201-0.2393-0.9228-0.2344-0.3076-0.7324-0.3076-0.669 0-0.9814 0.4199-0.3076 0.415-0.3076 1.279v2.861z"/>
    <path d="m665.9 273.7q-1.26 0-1.973-0.7324-0.708-0.7373-0.708-2.026 0-1.323 0.6592-2.08 0.6592-0.7568 1.812-0.7568 1.069 0 1.689 0.6494 0.6201 0.6494 0.6201 1.787v0.6201h-3.599q0.0244 0.7861 0.4248 1.211 0.4004 0.4199 1.128 0.4199 0.4785 0 0.8887-0.0879 0.415-0.0928 0.8887-0.3027v0.9326q-0.4199 0.2002-0.8496 0.2832t-0.9814 0.083zm-0.21-4.727q-0.5469 0-0.8789 0.3467-0.3272 0.3467-0.3906 1.011h2.451q-0.01-0.6689-0.3223-1.011-0.3125-0.3467-0.8594-0.3467z"/>
    <path d="m677.8 269.9q0 1.768-0.9814 2.705-0.9814 0.9326-2.827 0.9326h-1.997v-7.139h2.207q1.704 0 2.651 0.918 0.9473 0.918 0.9473 2.583zm-1.23 0.0391q0-2.563-2.397-2.563h-1.011v5.181h0.8301q2.578 0 2.578-2.617z"/>
    <path d="m681.6 273.7q-1.26 0-1.973-0.7324-0.708-0.7373-0.708-2.026 0-1.323 0.6592-2.08 0.6592-0.7568 1.812-0.7568 1.069 0 1.689 0.6494 0.6201 0.6494 0.6201 1.787v0.6201h-3.599q0.0244 0.7861 0.4248 1.211 0.4004 0.4199 1.128 0.4199 0.4785 0 0.8887-0.0879 0.415-0.0928 0.8887-0.3027v0.9326q-0.4199 0.2002-0.8496 0.2832t-0.9814 0.083zm-0.21-4.727q-0.5469 0-0.8789 0.3467-0.3272 0.3467-0.3906 1.011h2.451q-0.01-0.6689-0.3223-1.011-0.3125-0.3467-0.8594-0.3467z"/>
    <path d="m688.6 272q0 0.791-0.5762 1.216-0.5762 0.4199-1.65 0.4199-1.079 0-1.733-0.3271v-0.9912q0.9522 0.4394 1.772 0.4394 1.06 0 1.06-0.6396 0-0.2051-0.1172-0.3418t-0.3858-0.2832-0.7471-0.332q-0.9326-0.3613-1.265-0.7227-0.3271-0.3613-0.3271-0.9375 0-0.6934 0.5566-1.074 0.5615-0.3857 1.523-0.3857 0.9522 0 1.802 0.3857l-0.3711 0.8643q-0.874-0.3613-1.47-0.3613-0.9082 0-0.9082 0.5176 0 0.2539 0.2344 0.4297 0.2393 0.1758 1.035 0.4834 0.6689 0.2588 0.9717 0.4736 0.3027 0.2148 0.4492 0.498 0.1465 0.2783 0.1465 0.6689z"/>
    <path d="m691 273.6h-1.147v-5.4h1.147v5.4zm-1.216-6.831q0-0.3076 0.166-0.4736 0.1709-0.166 0.4834-0.166 0.3027 0 0.4688 0.166 0.1709 0.166 0.1709 0.4736 0 0.293-0.1709 0.4639-0.166 0.166-0.4688 0.166-0.3125 0-0.4834-0.166-0.166-0.1709-0.166-0.4639z"/>
    <path d="m697.2 268.2v0.6299l-0.9228 0.1709q0.127 0.1709 0.21 0.4199t0.083 0.5273q0 0.835-0.5762 1.313-0.5762 0.4785-1.587 0.4785-0.2588 0-0.4688-0.0391-0.3711 0.2295-0.3711 0.5371 0 0.1856 0.1709 0.2783 0.1758 0.0928 0.6396 0.0928h0.9424q0.8936 0 1.357 0.3809 0.4639 0.3809 0.4639 1.099 0 0.918-0.7568 1.416t-2.188 0.498q-1.104 0-1.685-0.3906-0.5811-0.3906-0.5811-1.113 0-0.498 0.3125-0.8398 0.3174-0.3369 0.8838-0.4688-0.2295-0.0976-0.3809-0.3125-0.1465-0.2197-0.1465-0.459 0-0.3027 0.1709-0.5127t0.5078-0.415q-0.4199-0.1807-0.6836-0.5859-0.2588-0.4102-0.2588-0.957 0-0.8789 0.5518-1.362 0.5566-0.4834 1.582-0.4834 0.2295 0 0.4785 0.0342 0.2539 0.0293 0.3809 0.0635h1.87zm-4.243 6.24q0 0.3711 0.332 0.5713 0.3369 0.2002 0.9424 0.2002 0.9375 0 1.396-0.2686 0.459-0.2686 0.459-0.7129 0-0.3516-0.2539-0.5029-0.249-0.1465-0.9326-0.1465h-0.8691q-0.4932 0-0.7861 0.2295-0.2881 0.2344-0.2881 0.6299zm0.4932-4.492q0 0.5078 0.2588 0.7812 0.2637 0.2734 0.752 0.2734 0.9961 0 0.9961-1.064 0-0.5273-0.249-0.8106-0.2441-0.2881-0.7471-0.2881-0.498 0-0.7568 0.2832-0.2539 0.2832-0.2539 0.8252z"/>
    <path d="m703 273.6h-1.152v-3.32q0-0.625-0.2539-0.9326-0.249-0.3076-0.7959-0.3076-0.7275 0-1.064 0.4297-0.3369 0.4297-0.3369 1.44v2.69h-1.147v-5.4h0.8984l0.1611 0.708h0.0586q0.2441-0.3858 0.6934-0.5957 0.4492-0.21 0.9961-0.21 1.943 0 1.943 1.978v3.521z"/>
  </g>
  <g stroke-miterlimit="3" fill="#ed9121">
    <rect class="st6" height="21.3" width="34" y="295.4" x="318.1"/>
    <rect class="st6" height="21.3" width="32.9" y="330.9" x="333.7"/>
    <rect class="st7" height="21.3" width="543.8" y="366.3" x="351.5"/>
  </g>
  <g fill="#fff">
    <path d="m370.6 379.9h-4.038v-7.139h4.038v0.9863h-2.871v1.943h2.69v0.9766h-2.69v2.241h2.871v0.9912z"/>
    <path d="m373.3 379.9-2.051-5.4h1.211l1.099 3.14q0.2832 0.791 0.3418 1.279h0.0391q0.0439-0.3516 0.3418-1.279l1.099-3.14h1.221l-2.061 5.4h-1.24z"/>
    <path d="m382.2 377.2q0 1.323-0.6787 2.065-0.6787 0.7422-1.89 0.7422-0.7568 0-1.338-0.3418-0.5811-0.3418-0.8936-0.9814t-0.3125-1.484q0-1.313 0.6738-2.051 0.6738-0.7373 1.899-0.7373 1.172 0 1.855 0.7568 0.6836 0.752 0.6836 2.031zm-3.931 0q0 1.87 1.382 1.87 1.367 0 1.367-1.87 0-1.851-1.377-1.851-0.7226 0-1.05 0.4785-0.3223 0.4785-0.3223 1.372z"/>
    <path d="m384.7 379.9h-1.147v-7.598h1.147v7.598z"/>
    <path d="m390.1 379.9-0.1611-0.708h-0.0586q-0.2392 0.376-0.6836 0.5908-0.4394 0.2148-1.006 0.2148-0.9814 0-1.465-0.4883-0.4834-0.4883-0.4834-1.479v-3.53h1.157v3.33q0 0.6201 0.2539 0.9326 0.2539 0.3076 0.7959 0.3076 0.7227 0 1.06-0.4297 0.3418-0.4346 0.3418-1.45v-2.69h1.152v5.4h-0.9033z"/>
    <path d="m394.7 379q0.4199 0 0.8398-0.1318v0.8643q-0.1904 0.083-0.4932 0.1367-0.2978 0.0586-0.6201 0.0586-1.631 0-1.631-1.719v-2.91h-0.7373v-0.5078l0.791-0.4199 0.3906-1.143h0.708v1.201h1.538v0.8691h-1.538v2.891q0 0.415 0.2051 0.6152 0.21 0.1953 0.5469 0.1953z"/>
    <path d="m397.7 379.9h-1.147v-5.4h1.147v5.4zm-1.216-6.831q0-0.3076 0.166-0.4736 0.1709-0.166 0.4834-0.166 0.3027 0 0.4688 0.166 0.1709 0.166 0.1709 0.4736 0 0.293-0.1709 0.4639-0.166 0.166-0.4688 0.166-0.3125 0-0.4834-0.166-0.166-0.1709-0.166-0.4639z"/>
    <path d="m404.2 377.2q0 1.323-0.6787 2.065-0.6787 0.7422-1.89 0.7422-0.7568 0-1.338-0.3418-0.581-0.3418-0.8936-0.9814-0.3125-0.6396-0.3125-1.484 0-1.313 0.6738-2.051 0.6738-0.7373 1.899-0.7373 1.172 0 1.855 0.7568 0.6836 0.752 0.6836 2.031zm-3.931 0q0 1.87 1.382 1.87 1.367 0 1.367-1.87 0-1.851-1.377-1.851-0.7227 0-1.05 0.4785-0.3223 0.4785-0.3223 1.372z"/>
    <path d="m410.3 379.9h-1.152v-3.32q0-0.625-0.2539-0.9326-0.249-0.3076-0.7959-0.3076-0.7275 0-1.064 0.4297-0.3369 0.4297-0.3369 1.44v2.69h-1.147v-5.4h0.8984l0.1611 0.708h0.0586q0.2441-0.3857 0.6934-0.5957 0.4492-0.21 0.9961-0.21 1.943 0 1.943 1.978v3.521z"/>
    <path d="m415.2 379.9-0.2295-0.752h-0.0391q-0.3906 0.4932-0.7861 0.6738-0.3955 0.1758-1.016 0.1758-0.7959 0-1.245-0.4297-0.4443-0.4297-0.4443-1.216 0-0.835 0.6201-1.26 0.6201-0.4248 1.89-0.4639l0.9326-0.0293v-0.2881q0-0.5176-0.2441-0.7715-0.2393-0.2588-0.7471-0.2588-0.415 0-0.7959 0.1221t-0.7324 0.2881l-0.3711-0.8203q0.4394-0.2295 0.9619-0.3467 0.5225-0.1221 0.9863-0.1221 1.03 0 1.553 0.4492 0.5274 0.4492 0.5274 1.411v3.638h-0.8203zm-1.709-0.7812q0.625 0 1.001-0.3467 0.3809-0.3516 0.3809-0.9814v-0.4688l-0.6934 0.0293q-0.8106 0.0293-1.182 0.2734-0.3662 0.2392-0.3662 0.7373 0 0.3613 0.2148 0.5615 0.2148 0.1953 0.6445 0.1953z"/>
    <path d="m420.4 374.4q0.3467 0 0.5713 0.0488l-0.1123 1.069q-0.2441-0.0586-0.5078-0.0586-0.6885 0-1.118 0.4492-0.4248 0.4492-0.4248 1.167v2.822h-1.147v-5.4h0.8984l0.1514 0.9521h0.0586q0.2686-0.4834 0.6982-0.7666 0.4346-0.2832 0.9326-0.2832z"/>
    <path d="m421.1 374.5h1.25l1.099 3.062q0.249 0.6543 0.332 1.23h0.0391q0.0439-0.2686 0.1611-0.6494 0.1172-0.3857 1.24-3.643h1.24l-2.31 6.118q-0.6299 1.685-2.1 1.685-0.3809 0-0.7422-0.083v-0.9082q0.2588 0.0586 0.5908 0.0586 0.8301 0 1.167-0.9619l0.2002-0.5078-2.168-5.4z"/>
    <path d="m434.8 374.9q0 1.118-0.7324 1.714-0.7324 0.5957-2.085 0.5957h-0.7422v2.671h-1.167v-7.139h2.056q1.338 0 2.002 0.5469 0.669 0.5469 0.669 1.611zm-3.56 1.328h0.6201q0.8984 0 1.318-0.3125 0.4199-0.3125 0.4199-0.9766 0-0.6152-0.376-0.918-0.376-0.3027-1.172-0.3027h-0.8106v2.51z"/>
    <path d="m438.8 374.4q0.3467 0 0.5713 0.0488l-0.1123 1.069q-0.2441-0.0586-0.5078-0.0586-0.6885 0-1.118 0.4492-0.4248 0.4492-0.4248 1.167v2.822h-1.147v-5.4h0.8984l0.1514 0.9521h0.0586q0.2686-0.4834 0.6982-0.7666 0.4346-0.2832 0.9326-0.2832z"/>
    <path d="m445.2 377.2q0 1.323-0.6787 2.065-0.6787 0.7422-1.89 0.7422-0.7568 0-1.338-0.3418-0.5811-0.3418-0.8936-0.9814t-0.3125-1.484q0-1.313 0.6738-2.051 0.6738-0.7373 1.899-0.7373 1.172 0 1.855 0.7568 0.6836 0.752 0.6836 2.031zm-3.931 0q0 1.87 1.382 1.87 1.367 0 1.367-1.87 0-1.851-1.377-1.851-0.7226 0-1.05 0.4785-0.3223 0.4785-0.3223 1.372z"/>
    <path d="m448.5 379q0.4199 0 0.8398-0.1318v0.8643q-0.1904 0.083-0.4932 0.1367-0.2978 0.0586-0.6201 0.0586-1.631 0-1.631-1.719v-2.91h-0.7373v-0.5078l0.791-0.4199 0.3906-1.143h0.708v1.201h1.538v0.8691h-1.538v2.891q0 0.415 0.2051 0.6152 0.21 0.1953 0.5469 0.1953z"/>
    <path d="m455.2 377.2q0 1.323-0.6787 2.065-0.6787 0.7422-1.89 0.7422-0.7568 0-1.338-0.3418-0.5811-0.3418-0.8936-0.9814t-0.3125-1.484q0-1.313 0.6738-2.051 0.6738-0.7373 1.899-0.7373 1.172 0 1.855 0.7568 0.6836 0.752 0.6836 2.031zm-3.931 0q0 1.87 1.382 1.87 1.367 0 1.367-1.87 0-1.851-1.377-1.851-0.7227 0-1.05 0.4785-0.3223 0.4785-0.3223 1.372z"/>
    <path d="m458.6 379q0.4199 0 0.8398-0.1318v0.8643q-0.1904 0.083-0.4932 0.1367-0.2978 0.0586-0.6201 0.0586-1.631 0-1.631-1.719v-2.91h-0.7373v-0.5078l0.791-0.4199 0.3906-1.143h0.708v1.201h1.538v0.8691h-1.538v2.891q0 0.415 0.2051 0.6152 0.21 0.1953 0.5469 0.1953z"/>
    <path d="m459.7 374.5h1.25l1.099 3.062q0.249 0.6543 0.332 1.23h0.0391q0.0439-0.2686 0.1611-0.6494 0.1172-0.3857 1.24-3.643h1.24l-2.31 6.118q-0.6299 1.685-2.1 1.685-0.3809 0-0.7422-0.083v-0.9082q0.2588 0.0586 0.5908 0.0586 0.8301 0 1.167-0.9619l0.2002-0.5078-2.168-5.4z"/>
    <path d="m468.6 380q-1.025 0-1.592-0.7373h-0.0684q0.0684 0.6836 0.0684 0.8301v2.212h-1.147v-7.803h0.9277q0.0391 0.1514 0.1611 0.7226h0.0586q0.5371-0.8203 1.611-0.8203 1.011 0 1.572 0.7324 0.5664 0.7324 0.5664 2.056 0 1.323-0.5762 2.065-0.5713 0.7422-1.582 0.7422zm-0.2783-4.658q-0.6836 0-1.001 0.4004-0.3125 0.4004-0.3125 1.279v0.1709q0 0.9863 0.3125 1.431 0.3125 0.4394 1.02 0.4394 0.5957 0 0.918-0.4883t0.3223-1.392q0-0.9082-0.3223-1.372-0.3174-0.4688-0.9375-0.4688z"/>
    <path d="m473.2 379.9h-1.147v-5.4h1.147v5.4zm-1.216-6.831q0-0.3076 0.166-0.4736 0.1709-0.166 0.4834-0.166 0.3027 0 0.4688 0.166 0.1709 0.166 0.1709 0.4736 0 0.293-0.1709 0.4639-0.166 0.166-0.4688 0.166-0.3125 0-0.4834-0.166-0.166-0.1709-0.166-0.4639z"/>
    <path d="m479.6 379.9h-1.152v-3.32q0-0.625-0.2539-0.9326-0.249-0.3076-0.7959-0.3076-0.7275 0-1.064 0.4297-0.3369 0.4297-0.3369 1.44v2.69h-1.147v-5.4h0.8984l0.1611 0.708h0.0586q0.2441-0.3857 0.6934-0.5957 0.4492-0.21 0.9961-0.21 1.943 0 1.943 1.978v3.521z"/>
    <path d="m485.8 374.5v0.6299l-0.9228 0.1709q0.127 0.1709 0.21 0.4199t0.083 0.5273q0 0.835-0.5762 1.313-0.5762 0.4785-1.587 0.4785-0.2588 0-0.4688-0.0391-0.3711 0.2295-0.3711 0.5371 0 0.1856 0.1709 0.2783 0.1758 0.0928 0.6396 0.0928h0.9424q0.8936 0 1.357 0.3808 0.4639 0.3809 0.4639 1.099 0 0.918-0.7568 1.416t-2.188 0.498q-1.104 0-1.685-0.3906-0.5811-0.3906-0.5811-1.113 0-0.498 0.3125-0.8398 0.3174-0.3369 0.8838-0.4688-0.2295-0.0977-0.3809-0.3125-0.1465-0.2197-0.1465-0.459 0-0.3027 0.1709-0.5127t0.5078-0.415q-0.4199-0.1807-0.6836-0.5859-0.2588-0.4102-0.2588-0.957 0-0.8789 0.5518-1.362 0.5566-0.4834 1.582-0.4834 0.2295 0 0.4785 0.0342 0.2539 0.0293 0.3809 0.0635h1.87zm-4.243 6.24q0 0.3711 0.332 0.5713 0.3369 0.2002 0.9424 0.2002 0.9375 0 1.396-0.2686 0.459-0.2686 0.459-0.7129 0-0.3516-0.2539-0.5029-0.249-0.1465-0.9326-0.1465h-0.8691q-0.4932 0-0.7861 0.2295-0.2881 0.2344-0.2881 0.6299zm0.4932-4.492q0 0.5078 0.2588 0.7812 0.2637 0.2734 0.752 0.2734 0.9961 0 0.9961-1.064 0-0.5274-0.249-0.8106-0.2441-0.2881-0.7471-0.2881-0.498 0-0.7568 0.2832-0.2539 0.2832-0.2539 0.8252z"/>
  </g>
  <g fill="#625986">
    <path fill="#fff" d="m200.1 404.5h5.704v2.417h-1.187l-3.56 10.91h-3.604l-3.454-10.91h-1.283v-2.417h5.713v2.417h-1.424l2.32 7.559 2.312-7.559h-1.538v-2.417z"/>
  </g>
  <g fill="#fff">
    <path d="m196.6 439.9h5.704v2.417h-1.187l-3.56 10.91h-3.604l-3.454-10.91h-1.283v-2.417h5.713v2.417h-1.424l2.32 7.559 2.312-7.559h-1.538v-2.417z"/>
    <path d="m203.5 439.9h5.704v2.408h-1.406v8.508h1.406v2.408h-5.704v-2.408h1.38v-8.508h-1.38v-2.408z"/>
  </g>
  <rect class="st6" height="21.3" width="51" stroke-miterlimit="3" y="401.3" x="335.1" fill="#ed9121"/>
  <rect class="st7" height="21.3" width="509.8" stroke-miterlimit="3" y="437.2" x="385.5" fill="#ed9121"/>
  <g fill="#fff">
    <path d="m404.6 450.8h-4.038v-7.139h4.038v0.9863h-2.871v1.943h2.69v0.9766h-2.69v2.241h2.871v0.9912z"/>
    <path d="m407.3 450.8-2.051-5.4h1.211l1.099 3.14q0.2832 0.791 0.3418 1.279h0.0391q0.0439-0.3516 0.3418-1.279l1.099-3.14h1.221l-2.061 5.4h-1.24z"/>
    <path d="m416.2 448.1q0 1.323-0.6787 2.065-0.6787 0.7422-1.89 0.7422-0.7568 0-1.338-0.3418-0.5811-0.3418-0.8936-0.9814t-0.3125-1.484q0-1.313 0.6738-2.051 0.6738-0.7373 1.899-0.7373 1.172 0 1.855 0.7568 0.6836 0.752 0.6836 2.031zm-3.931 0q0 1.87 1.382 1.87 1.367 0 1.367-1.87 0-1.851-1.377-1.851-0.7226 0-1.05 0.4785-0.3223 0.4785-0.3223 1.372z"/>
    <path d="m418.7 450.8h-1.147v-7.598h1.147v7.598z"/>
    <path d="m424.1 450.8-0.1611-0.708h-0.0586q-0.2392 0.376-0.6836 0.5908-0.4394 0.2148-1.006 0.2148-0.9814 0-1.465-0.4883-0.4834-0.4883-0.4834-1.48v-3.53h1.157v3.33q0 0.6201 0.2539 0.9326 0.2539 0.3076 0.7959 0.3076 0.7227 0 1.06-0.4297 0.3418-0.4346 0.3418-1.45v-2.69h1.152v5.4h-0.9033z"/>
    <path d="m428.7 449.9q0.4199 0 0.8398-0.1318v0.8642q-0.1904 0.083-0.4932 0.1367-0.2978 0.0586-0.6201 0.0586-1.631 0-1.631-1.719v-2.91h-0.7373v-0.5078l0.791-0.4199 0.3906-1.143h0.708v1.201h1.538v0.8691h-1.538v2.891q0 0.415 0.2051 0.6152 0.21 0.1953 0.5469 0.1953z"/>
    <path d="m431.7 450.8h-1.147v-5.4h1.147v5.4zm-1.216-6.831q0-0.3076 0.166-0.4736 0.1709-0.166 0.4834-0.166 0.3027 0 0.4688 0.166 0.1709 0.166 0.1709 0.4736 0 0.293-0.1709 0.4639-0.166 0.166-0.4688 0.166-0.3125 0-0.4834-0.166-0.166-0.1709-0.166-0.4639z"/>
    <path d="m438.2 448.1q0 1.323-0.6787 2.065-0.6787 0.7422-1.89 0.7422-0.7568 0-1.338-0.3418-0.581-0.3418-0.8936-0.9814-0.3125-0.6396-0.3125-1.484 0-1.313 0.6738-2.051 0.6738-0.7373 1.899-0.7373 1.172 0 1.855 0.7568 0.6836 0.752 0.6836 2.031zm-3.931 0q0 1.87 1.382 1.87 1.367 0 1.367-1.87 0-1.851-1.377-1.851-0.7227 0-1.05 0.4785-0.3223 0.4785-0.3223 1.372z"/>
    <path d="m444.3 450.8h-1.152v-3.32q0-0.625-0.2539-0.9326-0.249-0.3076-0.7959-0.3076-0.7275 0-1.064 0.4297-0.3369 0.4297-0.3369 1.44v2.69h-1.147v-5.4h0.8984l0.1611 0.708h0.0586q0.2441-0.3857 0.6934-0.5957 0.4492-0.21 0.9961-0.21 1.943 0 1.943 1.978v3.521z"/>
    <path d="m449.2 450.8-0.2295-0.752h-0.0391q-0.3906 0.4932-0.7861 0.6738-0.3955 0.1758-1.016 0.1758-0.7959 0-1.245-0.4297-0.4443-0.4297-0.4443-1.216 0-0.835 0.6201-1.26 0.6201-0.4248 1.89-0.4639l0.9326-0.0293v-0.2881q0-0.5176-0.2441-0.7715-0.2393-0.2588-0.7471-0.2588-0.415 0-0.7959 0.1221t-0.7324 0.2881l-0.3711-0.8203q0.4394-0.2295 0.9619-0.3467 0.5225-0.1221 0.9863-0.1221 1.03 0 1.553 0.4492 0.5274 0.4492 0.5274 1.411v3.638h-0.8203zm-1.709-0.7812q0.625 0 1.001-0.3467 0.3809-0.3516 0.3809-0.9814v-0.4688l-0.6934 0.0293q-0.8106 0.0293-1.182 0.2734-0.3662 0.2393-0.3662 0.7373 0 0.3613 0.2148 0.5615 0.2148 0.1953 0.6445 0.1953z"/>
    <path d="m454.4 445.3q0.3467 0 0.5713 0.0488l-0.1123 1.069q-0.2441-0.0586-0.5078-0.0586-0.6885 0-1.118 0.4492-0.4248 0.4492-0.4248 1.167v2.822h-1.147v-5.4h0.8984l0.1514 0.9522h0.0586q0.2686-0.4834 0.6982-0.7666 0.4346-0.2832 0.9326-0.2832z"/>
    <path d="m455.1 445.4h1.25l1.099 3.062q0.249 0.6543 0.332 1.23h0.0391q0.0439-0.2686 0.1611-0.6494 0.1172-0.3857 1.24-3.643h1.24l-2.31 6.118q-0.6299 1.685-2.1 1.685-0.3809 0-0.7422-0.083v-0.9082q0.2588 0.0586 0.5908 0.0586 0.8301 0 1.167-0.9619l0.2002-0.5078-2.168-5.4z"/>
    <path d="m468.8 445.8q0 1.118-0.7324 1.714-0.7324 0.5957-2.085 0.5957h-0.7422v2.671h-1.167v-7.139h2.056q1.338 0 2.002 0.5469 0.669 0.5469 0.669 1.611zm-3.56 1.328h0.6201q0.8984 0 1.318-0.3125 0.4199-0.3125 0.4199-0.9766 0-0.6152-0.376-0.918-0.376-0.3027-1.172-0.3027h-0.8106v2.51z"/>
    <path d="m472.8 445.3q0.3467 0 0.5713 0.0488l-0.1123 1.069q-0.2441-0.0586-0.5078-0.0586-0.6885 0-1.118 0.4492-0.4248 0.4492-0.4248 1.167v2.822h-1.147v-5.4h0.8984l0.1514 0.9522h0.0586q0.2686-0.4834 0.6982-0.7666 0.4346-0.2832 0.9326-0.2832z"/>
    <path d="m479.2 448.1q0 1.323-0.6787 2.065-0.6787 0.7422-1.89 0.7422-0.7568 0-1.338-0.3418-0.5811-0.3418-0.8936-0.9814t-0.3125-1.484q0-1.313 0.6738-2.051 0.6738-0.7373 1.899-0.7373 1.172 0 1.855 0.7568 0.6836 0.752 0.6836 2.031zm-3.931 0q0 1.87 1.382 1.87 1.367 0 1.367-1.87 0-1.851-1.377-1.851-0.7226 0-1.05 0.4785-0.3223 0.4785-0.3223 1.372z"/>
    <path d="m482.5 449.9q0.4199 0 0.8398-0.1318v0.8642q-0.1904 0.083-0.4932 0.1367-0.2978 0.0586-0.6201 0.0586-1.631 0-1.631-1.719v-2.91h-0.7373v-0.5078l0.791-0.4199 0.3906-1.143h0.708v1.201h1.538v0.8691h-1.538v2.891q0 0.415 0.2051 0.6152 0.21 0.1953 0.5469 0.1953z"/>
    <path d="m489.2 448.1q0 1.323-0.6787 2.065-0.6787 0.7422-1.89 0.7422-0.7568 0-1.338-0.3418-0.5811-0.3418-0.8936-0.9814t-0.3125-1.484q0-1.313 0.6738-2.051 0.6738-0.7373 1.899-0.7373 1.172 0 1.855 0.7568 0.6836 0.752 0.6836 2.031zm-3.931 0q0 1.87 1.382 1.87 1.367 0 1.367-1.87 0-1.851-1.377-1.851-0.7227 0-1.05 0.4785-0.3223 0.4785-0.3223 1.372z"/>
    <path d="m492.6 449.9q0.4199 0 0.8398-0.1318v0.8642q-0.1904 0.083-0.4932 0.1367-0.2978 0.0586-0.6201 0.0586-1.631 0-1.631-1.719v-2.91h-0.7373v-0.5078l0.791-0.4199 0.3906-1.143h0.708v1.201h1.538v0.8691h-1.538v2.891q0 0.415 0.2051 0.6152 0.21 0.1953 0.5469 0.1953z"/>
    <path d="m493.7 445.4h1.25l1.099 3.062q0.249 0.6543 0.332 1.23h0.0391q0.0439-0.2686 0.1611-0.6494 0.1172-0.3857 1.24-3.643h1.24l-2.31 6.118q-0.6299 1.685-2.1 1.685-0.3809 0-0.7422-0.083v-0.9082q0.2588 0.0586 0.5908 0.0586 0.8301 0 1.167-0.9619l0.2002-0.5078-2.168-5.4z"/>
    <path d="m502.6 450.9q-1.025 0-1.592-0.7373h-0.0684q0.0684 0.6836 0.0684 0.8301v2.212h-1.147v-7.803h0.9277q0.0391 0.1514 0.1611 0.7227h0.0586q0.5371-0.8203 1.611-0.8203 1.011 0 1.572 0.7324 0.5664 0.7324 0.5664 2.056 0 1.323-0.5762 2.065-0.5713 0.7422-1.582 0.7422zm-0.2783-4.658q-0.6836 0-1.001 0.4004-0.3125 0.4004-0.3125 1.279v0.1709q0 0.9863 0.3125 1.431 0.3125 0.4395 1.02 0.4395 0.5957 0 0.918-0.4883t0.3223-1.392q0-0.9082-0.3223-1.372-0.3174-0.4688-0.9375-0.4688z"/>
    <path d="m507.2 450.8h-1.147v-5.4h1.147v5.4zm-1.216-6.831q0-0.3076 0.166-0.4736 0.1709-0.166 0.4834-0.166 0.3027 0 0.4688 0.166 0.1709 0.166 0.1709 0.4736 0 0.293-0.1709 0.4639-0.166 0.166-0.4688 0.166-0.3125 0-0.4834-0.166-0.166-0.1709-0.166-0.4639z"/>
    <path d="m513.6 450.8h-1.152v-3.32q0-0.625-0.2539-0.9326-0.249-0.3076-0.7959-0.3076-0.7275 0-1.064 0.4297-0.3369 0.4297-0.3369 1.44v2.69h-1.147v-5.4h0.8984l0.1611 0.708h0.0586q0.2441-0.3857 0.6934-0.5957 0.4492-0.21 0.9961-0.21 1.943 0 1.943 1.978v3.521z"/>
    <path d="m519.8 445.4v0.6299l-0.9228 0.1709q0.127 0.1709 0.21 0.4199t0.083 0.5274q0 0.835-0.5762 1.313-0.5762 0.4785-1.587 0.4785-0.2588 0-0.4688-0.0391-0.3711 0.2295-0.3711 0.5371 0 0.1855 0.1709 0.2783 0.1758 0.0928 0.6396 0.0928h0.9424q0.8936 0 1.357 0.3809 0.4639 0.3809 0.4639 1.099 0 0.918-0.7568 1.416t-2.188 0.498q-1.104 0-1.685-0.3906-0.5811-0.3906-0.5811-1.113 0-0.498 0.3125-0.8398 0.3174-0.3369 0.8838-0.4688-0.2295-0.0976-0.3809-0.3125-0.1465-0.2197-0.1465-0.459 0-0.3027 0.1709-0.5127t0.5078-0.415q-0.4199-0.1807-0.6836-0.5859-0.2588-0.4102-0.2588-0.957 0-0.8789 0.5518-1.362 0.5566-0.4834 1.582-0.4834 0.2295 0 0.4785 0.0342 0.2539 0.0293 0.3809 0.0635h1.87zm-4.243 6.24q0 0.3711 0.332 0.5713 0.3369 0.2002 0.9424 0.2002 0.9375 0 1.396-0.2686 0.459-0.2686 0.459-0.7129 0-0.3516-0.2539-0.5029-0.249-0.1465-0.9326-0.1465h-0.8691q-0.4932 0-0.7861 0.2295-0.2881 0.2344-0.2881 0.6299zm0.4932-4.492q0 0.5078 0.2588 0.7812 0.2637 0.2734 0.752 0.2734 0.9961 0 0.9961-1.064 0-0.5273-0.249-0.8106-0.2441-0.2881-0.7471-0.2881-0.498 0-0.7568 0.2832-0.2539 0.2832-0.2539 0.8252z"/>
  </g>
  <path stroke-linejoin="round" d="m186.3 387.6h-7.1c-3.9 0-7.1-3.2-7.1-7.1v0-14.2c0-3.9-3.2-7.1-7.1-7.1 3.9 0 7.1-3.2 7.1-7.1v-14.1c0-3.9 3.2-7.1 7.1-7.1h7.1" stroke="#f00" stroke-linecap="round" stroke-miterlimit="3" stroke-width=".5" class="st11" fill="none"/>
  <g fill="#fff">
    <path fill="#fff" d="m146 342.4q-0.6836 0-1.059 0.5156-0.375 0.5117-0.375 1.43 0 1.91 1.434 1.91 0.6016 0 1.457-0.3008v1.016q-0.7031 0.293-1.57 0.293-1.246 0-1.906-0.7539-0.6602-0.7578-0.6602-2.172 0-0.8906 0.3242-1.559 0.3242-0.6719 0.9297-1.027 0.6094-0.3594 1.426-0.3594 0.832 0 1.672 0.4023l-0.3906 0.9844q-0.3203-0.1523-0.6445-0.2656t-0.6367-0.1133z"/>
    <path fill="#fff" d="m148.3 353.9q0 1.418-0.7031 2.18-0.7031 0.7617-2.016 0.7617-1.312 0-2.016-0.7617-0.7031-0.7617-0.7031-2.188t0.7031-2.176q0.707-0.7539 2.023-0.7539t2.012 0.7578q0.6992 0.7578 0.6992 2.18zm-4.168 0q0 0.957 0.3633 1.441 0.3633 0.4844 1.086 0.4844 1.449 0 1.449-1.926 0-1.93-1.441-1.93-0.7227 0-1.09 0.4883-0.3672 0.4844-0.3672 1.441z"/>
    <path fill="#fff" d="m144.8 363.2h0.3906q0.5742 0 0.8476-0.1914t0.2734-0.6016q0-0.4062-0.2812-0.5781-0.2773-0.1719-0.8633-0.1719h-0.3672v1.543zm0 0.9844v2.191h-1.211v-5.711h1.664q1.164 0 1.723 0.4258 0.5586 0.4219 0.5586 1.285 0 0.5039-0.2774 0.8984-0.2773 0.3906-0.7852 0.6133 1.289 1.926 1.68 2.488h-1.344l-1.363-2.191h-0.6445z"/>
    <path fill="#fff" d="m147.1 376h-3.289v-5.711h3.289v0.9922h-2.078v1.254h1.934v0.9922h-1.934v1.473h2.078v1z"/>
  </g>
  <g transform="translate(565.2 -370.5)">
    <path id="timeline-button-2" stroke-linejoin="round" d="m56 747.5c0.1-2.8 2.4-5 5.2-4.9 2.7 0.1 4.8 2.2 4.9 4.9 0.1 2.8-2.1 5.1-4.9 5.2s-5.1-2.1-5.2-4.9v-0.3z" stroke-opacity=".7843" fill-opacity=".7059" class="st15" stroke="#940c17" stroke-linecap="round" stroke-miterlimit="3" stroke-width=".5" fill="#ed2939"/>
  </g>
  <g transform="translate(374.9 -300.3)">
    <path id="timeline-button-3" stroke-linejoin="round" d="m56 747.5c0.1-2.8 2.4-5 5.2-4.9 2.7 0.1 4.8 2.2 4.9 4.9 0.1 2.8-2.1 5.1-4.9 5.2s-5.1-2.1-5.2-4.9v-0.3z" stroke-opacity=".7843" fill-opacity=".7059" class="st15" stroke="#940c17" stroke-linecap="round" stroke-miterlimit="3" stroke-width=".5" fill="#ed2939"/>
  </g>
  <g transform="translate(602.3 -300.3)">
    <path id="timeline-button-4" stroke-linejoin="round" d="m56 747.5c0.1-2.8 2.4-5 5.2-4.9 2.7 0.1 4.8 2.2 4.9 4.9 0.1 2.8-2.1 5.1-4.9 5.2s-5.1-2.1-5.2-4.9v-0.3z" stroke-opacity=".7843" fill-opacity=".7059" class="st15" stroke="#930d17" stroke-linecap="round" stroke-miterlimit="3" stroke-width=".5" fill="#ed2939"/>
  </g>
  <g transform="translate(179.9 -578.9)" stroke="#ed9121" fill="none">
    <path stroke-linejoin="round" d="m56 739.7h200.1" class="st16" stroke="#ed9121" stroke-linecap="round" stroke-miterlimit="3" stroke-width=".5" fill="none"/>
  </g>
  <path stroke-linejoin="round" d="m235.9 170.6v-19.4" stroke="#ed9121" stroke-linecap="round" stroke-miterlimit="3" stroke-width=".5" class="st16" fill="none"/>
  <g fill="#ed9121">
    <path d="m232 133.5h-3.871v-0.6953l1.473-1.48q0.6523-0.668 0.8633-0.9453 0.2148-0.2812 0.3125-0.5274 0.0977-0.2461 0.0977-0.5273 0-0.3867-0.2344-0.6094-0.2305-0.2227-0.6406-0.2227-0.3281 0-0.6367 0.1211-0.3047 0.1211-0.707 0.4375l-0.4961-0.6055q0.4766-0.4023 0.9258-0.5703t0.957-0.168q0.7969 0 1.277 0.418 0.4805 0.4141 0.4805 1.117 0 0.3867-0.1406 0.7344-0.1367 0.3477-0.4258 0.7188-0.2852 0.3672-0.9531 0.9961l-0.9922 0.9609v0.0391h2.711v0.8086z"/>
    <path d="m236.6 130.6q0 1.488-0.4805 2.211-0.4766 0.7227-1.461 0.7227-0.9531 0-1.445-0.7461-0.4922-0.7461-0.4922-2.188 0-1.512 0.4766-2.227 0.4805-0.7188 1.461-0.7188 0.957 0 1.449 0.75 0.4922 0.75 0.4922 2.195zm-2.949 0q0 1.168 0.2383 1.668 0.2422 0.5 0.7695 0.5t0.7695-0.5078q0.2461-0.5078 0.2461-1.66 0-1.148-0.2461-1.66-0.2422-0.5156-0.7695-0.5156t-0.7695 0.5039q-0.2383 0.5039-0.2383 1.672z"/>
    <path d="m240 133.5h-0.918v-3.688q0-0.6602 0.0312-1.047-0.0898 0.0937-0.2227 0.207-0.1289 0.1133-0.875 0.7188l-0.4609-0.582 1.68-1.32h0.7656v5.711z"/>
    <path d="m243.8 129.9q0.8633 0 1.367 0.457 0.5039 0.457 0.5039 1.246 0 0.9141-0.5742 1.43-0.5703 0.5117-1.625 0.5117-0.957 0-1.504-0.3086v-0.832q0.3164 0.1797 0.7266 0.2774 0.4102 0.0976 0.7617 0.0976 0.6211 0 0.9453-0.2773 0.3242-0.2774 0.3242-0.8125 0-1.023-1.305-1.023-0.1836 0-0.4531 0.0391-0.2695 0.0352-0.4727 0.082l-0.4102-0.2422 0.2188-2.789h2.969v0.8164h-2.16l-0.1289 1.414q0.1367-0.0234 0.332-0.0547 0.1992-0.0312 0.4844-0.0312z"/>
  </g>
  <path stroke-linejoin="round" d="m285.3 165.1v-8.5" stroke="#ed9121" stroke-linecap="round" stroke-miterlimit="3" stroke-width=".5" class="st16" fill="none"/>
  <g fill="#ed9121">
    <path fill="#ed9121" d="m287.7 140.4h-0.7695v1.246h-0.8945v-1.246h-2.609v-0.707l2.609-3.773h0.8945v3.719h0.7695v0.7617zm-1.664-0.7617v-1.434q0-0.7656 0.0391-1.254h-0.0312q-0.1094 0.2578-0.3438 0.625l-1.418 2.062h1.754z"/>
  </g>
  <path stroke-linejoin="round" d="m335.1 165.1v-8.5" stroke="#ed9121" stroke-linecap="round" stroke-miterlimit="3" stroke-width=".5" class="st16" fill="none"/>
  <g fill="#ed9121">
    <path fill="#ed9121" d="m334.1 141.7 2.258-4.895h-2.969v-0.8086h3.949v0.6406l-2.246 5.062h-0.9922z"/>
  </g>
  <path stroke-linejoin="round" d="m385.7 165.1v-8.5" stroke="#ed9121" stroke-linecap="round" stroke-miterlimit="3" stroke-width=".5" class="st16" fill="none"/>
  <g fill="#ed9121">
    <path d="m384.6 141.7h-0.918v-3.688q0-0.6602 0.0312-1.047-0.0898 0.0937-0.2226 0.207-0.1289 0.1133-0.875 0.7188l-0.4609-0.582 1.68-1.32h0.7656v5.711z"/>
    <path d="m390.4 138.8q0 1.488-0.4805 2.211-0.4766 0.7226-1.461 0.7226-0.9531 0-1.445-0.7461-0.4922-0.7461-0.4922-2.188 0-1.512 0.4766-2.227 0.4805-0.7188 1.461-0.7188 0.957 0 1.449 0.75 0.4922 0.75 0.4922 2.195zm-2.949 0q0 1.168 0.2383 1.668 0.2422 0.5 0.7695 0.5t0.7695-0.5078q0.2461-0.5078 0.2461-1.66 0-1.148-0.2461-1.66-0.2422-0.5156-0.7695-0.5156-0.5274 0-0.7695 0.5039-0.2383 0.5039-0.2383 1.672z"/>
  </g>
  <g transform="translate(380.1 -578.9)" stroke="#ed9121" fill="none">
    <path stroke-linejoin="round" d="m56 739.7h457.5" class="st16" stroke="#ed9121" stroke-linecap="round" stroke-miterlimit="3" stroke-width=".5" fill="none"/>
  </g>
  <path stroke-linejoin="round" d="m436.1 170.6v-19.4" stroke="#ed9121" stroke-linecap="round" stroke-miterlimit="3" stroke-width=".5" class="st16" fill="none"/>
  <g opacity="0.97" fill="#ed9121">
    <path opacity="0.97" d="m432.2 133.5h-3.871v-0.6953l1.473-1.48q0.6523-0.668 0.8633-0.9453 0.2148-0.2812 0.3125-0.5274 0.0977-0.2461 0.0977-0.5273 0-0.3867-0.2344-0.6094-0.2305-0.2227-0.6406-0.2227-0.3281 0-0.6367 0.1211-0.3047 0.1211-0.707 0.4375l-0.4961-0.6055q0.4766-0.4023 0.9258-0.5703t0.957-0.168q0.7969 0 1.277 0.418 0.4805 0.4141 0.4805 1.117 0 0.3867-0.1406 0.7344-0.1367 0.3477-0.4258 0.7188-0.2852 0.3672-0.9531 0.9961l-0.9922 0.9609v0.0391h2.711v0.8086z"/>
    <path opacity="0.97" d="m436.8 130.6q0 1.488-0.4805 2.211-0.4766 0.7227-1.461 0.7227-0.9531 0-1.445-0.7461-0.4922-0.7461-0.4922-2.188 0-1.512 0.4766-2.227 0.4805-0.7188 1.461-0.7188 0.957 0 1.449 0.75 0.4922 0.75 0.4922 2.195zm-2.949 0q0 1.168 0.2383 1.668 0.2422 0.5 0.7695 0.5t0.7695-0.5078q0.2461-0.5078 0.2461-1.66 0-1.148-0.2461-1.66-0.2422-0.5156-0.7695-0.5156t-0.7695 0.5039q-0.2383 0.5039-0.2383 1.672z"/>
    <path opacity="0.97" d="m440.2 133.5h-0.918v-3.688q0-0.6602 0.0312-1.047-0.0899 0.0937-0.2227 0.207-0.1289 0.1133-0.875 0.7188l-0.4609-0.582 1.68-1.32h0.7656v5.711z"/>
    <path opacity="0.97" d="m442 131q0-3.352 2.73-3.352 0.4297 0 0.7266 0.0664v0.7656q-0.2969-0.0859-0.6875-0.0859-0.918 0-1.379 0.4922-0.4609 0.4922-0.5 1.578h0.0469q0.1836-0.3164 0.5156-0.4883 0.332-0.1758 0.7812-0.1758 0.7774 0 1.211 0.4766t0.4336 1.293q0 0.8984-0.5039 1.422-0.5 0.5195-1.367 0.5195-0.6133 0-1.066-0.293-0.4531-0.2969-0.6992-0.8594-0.2422-0.5664-0.2422-1.359zm1.992 1.754q0.4726 0 0.7266-0.3047 0.2578-0.3047 0.2578-0.8711 0-0.4922-0.2422-0.7734-0.2383-0.2812-0.7188-0.2812-0.2969 0-0.5469 0.1289-0.25 0.125-0.3945 0.3477-0.1445 0.2188-0.1445 0.4492 0 0.5508 0.2969 0.9297 0.3008 0.375 0.7656 0.375z"/>
  </g>
  <path stroke-linejoin="round" d="m893.5 170.6v-19.4" stroke="#ed9121" stroke-linecap="round" stroke-miterlimit="3" stroke-width=".5" class="st16" fill="none"/>
  <g fill="#ed9121">
    <path d="m889.6 133.5h-3.871v-0.6953l1.473-1.48q0.6524-0.668 0.8633-0.9453 0.2148-0.2812 0.3125-0.5274 0.0977-0.2461 0.0977-0.5273 0-0.3867-0.2344-0.6094-0.2305-0.2227-0.6406-0.2227-0.3281 0-0.6367 0.1211-0.3047 0.1211-0.707 0.4375l-0.4961-0.6055q0.4766-0.4023 0.9258-0.5703t0.957-0.168q0.7969 0 1.277 0.418 0.4805 0.4141 0.4805 1.117 0 0.3867-0.1406 0.7344-0.1367 0.3477-0.4258 0.7188-0.2852 0.3672-0.9531 0.9961l-0.9922 0.9609v0.0391h2.711v0.8086z"/>
    <path d="m894.2 130.6q0 1.488-0.4805 2.211-0.4766 0.7227-1.461 0.7227-0.9531 0-1.445-0.7461-0.4922-0.7461-0.4922-2.188 0-1.512 0.4766-2.227 0.4805-0.7188 1.461-0.7188 0.957 0 1.449 0.75 0.4922 0.75 0.4922 2.195zm-2.949 0q0 1.168 0.2383 1.668 0.2422 0.5 0.7695 0.5 0.5274 0 0.7695-0.5078 0.2461-0.5078 0.2461-1.66 0-1.148-0.2461-1.66-0.2422-0.5156-0.7695-0.5156t-0.7695 0.5039q-0.2383 0.5039-0.2383 1.672z"/>
    <path d="m897.6 133.5h-0.918v-3.688q0-0.6602 0.0312-1.047-0.0898 0.0937-0.2227 0.207-0.1289 0.1133-0.875 0.7188l-0.4609-0.582 1.68-1.32h0.7656v5.711z"/>
    <path d="m900.1 133.5 2.258-4.895h-2.969v-0.8086h3.949v0.6406l-2.246 5.062h-0.9922z"/>
  </g>
  <path stroke-linejoin="round" d="m475 165.1v-8.5" stroke="#ed9121" stroke-linecap="round" stroke-miterlimit="3" stroke-width=".5" class="st16" fill="none"/>
  <g fill="#ed9121">
    <path fill="#ed9121" d="m477.2 141.7h-3.871v-0.6953l1.473-1.48q0.6523-0.668 0.8633-0.9453 0.2148-0.2812 0.3125-0.5274 0.0977-0.2461 0.0977-0.5273 0-0.3867-0.2344-0.6094-0.2305-0.2226-0.6406-0.2226-0.3281 0-0.6367 0.1211-0.3047 0.1211-0.707 0.4375l-0.4961-0.6055q0.4766-0.4023 0.9258-0.5703t0.957-0.168q0.7969 0 1.277 0.418 0.4805 0.4141 0.4805 1.117 0 0.3867-0.1406 0.7344-0.1367 0.3477-0.4258 0.7188-0.2852 0.3672-0.9531 0.9961l-0.9922 0.9609v0.0391h2.711v0.8086z"/>
  </g>
  <path stroke-linejoin="round" d="m511.1 165.1v-8.5" stroke="#ed9121" stroke-linecap="round" stroke-miterlimit="3" stroke-width=".5" class="st16" fill="none"/>
  <g fill="#ed9121">
    <path fill="#ed9121" d="m513.1 137.3q0 0.543-0.3164 0.9062-0.3164 0.3594-0.8906 0.4844v0.0312q0.6875 0.0859 1.031 0.4297 0.3438 0.3398 0.3438 0.9062 0 0.8242-0.582 1.273-0.582 0.4453-1.656 0.4453-0.9492 0-1.602-0.3086v-0.8164q0.3633 0.1797 0.7695 0.2774 0.4062 0.0976 0.7812 0.0976 0.6641 0 0.9922-0.2461t0.3281-0.7617q0-0.457-0.3633-0.6719-0.3633-0.2148-1.141-0.2148h-0.4961v-0.7461h0.5039q1.367 0 1.367-0.9453 0-0.3672-0.2383-0.5664t-0.7031-0.1992q-0.3242 0-0.625 0.0937-0.3008 0.0899-0.7109 0.3555l-0.4492-0.6406q0.7852-0.5781 1.824-0.5781 0.8633 0 1.348 0.3711 0.4844 0.3711 0.4844 1.023z"/>
  </g>
  <path stroke-linejoin="round" d="m550 165.1v-8.5" stroke="#ed9121" stroke-linecap="round" stroke-miterlimit="3" stroke-width=".5" class="st16" fill="none"/>
  <g fill="#ed9121">
    <path fill="#ed9121" d="m552.4 140.4h-0.7695v1.246h-0.8945v-1.246h-2.609v-0.707l2.609-3.773h0.8945v3.719h0.7695v0.7617zm-1.664-0.7617v-1.434q0-0.7656 0.0391-1.254h-0.0312q-0.1094 0.2578-0.3438 0.625l-1.418 2.062h1.754z"/>
  </g>
  <path stroke-linejoin="round" d="m587.5 165.1v-8.5" stroke="#ed9121" stroke-linecap="round" stroke-miterlimit="3" stroke-width=".5" class="st16" fill="none"/>
  <g fill="#ed9121">
    <path fill="#ed9121" d="m587.8 138.1q0.8633 0 1.367 0.457 0.5039 0.457 0.5039 1.246 0 0.9141-0.5742 1.43-0.5703 0.5117-1.625 0.5117-0.957 0-1.504-0.3086v-0.832q0.3164 0.1797 0.7266 0.2773 0.4102 0.0977 0.7617 0.0977 0.6211 0 0.9453-0.2773 0.3242-0.2774 0.3242-0.8125 0-1.023-1.305-1.023-0.1836 0-0.4531 0.0391-0.2695 0.0352-0.4727 0.082l-0.4102-0.2422 0.2188-2.789h2.969v0.8164h-2.16l-0.1289 1.414q0.1367-0.0234 0.332-0.0547 0.1992-0.0312 0.4844-0.0312z"/>
  </g>
  <path stroke-linejoin="round" d="m625.9 165.1v-8.5" stroke="#ed9121" stroke-linecap="round" stroke-miterlimit="3" stroke-width=".5" class="st16" fill="none"/>
  <g fill="#ed9121">
    <path fill="#ed9121" d="m624.3 139.2q0-3.352 2.73-3.352 0.4297 0 0.7266 0.0664v0.7656q-0.2969-0.0859-0.6875-0.0859-0.918 0-1.379 0.4922-0.4609 0.4922-0.5 1.578h0.0469q0.1836-0.3164 0.5156-0.4883 0.332-0.1758 0.7812-0.1758 0.7773 0 1.211 0.4766 0.4336 0.4766 0.4336 1.293 0 0.8984-0.5039 1.422-0.5 0.5195-1.367 0.5195-0.6133 0-1.066-0.293-0.4531-0.2969-0.6992-0.8594-0.2422-0.5664-0.2422-1.359zm1.992 1.754q0.4727 0 0.7266-0.3047 0.2578-0.3047 0.2578-0.8711 0-0.4922-0.2422-0.7734-0.2383-0.2812-0.7188-0.2812-0.2969 0-0.5469 0.1289-0.25 0.125-0.3945 0.3477-0.1445 0.2188-0.1445 0.4492 0 0.5508 0.2969 0.9297 0.3008 0.375 0.7656 0.375z"/>
  </g>
  <path stroke-linejoin="round" d="m663.4 165.1v-8.5" stroke="#ed9121" stroke-linecap="round" stroke-miterlimit="3" stroke-width=".5" class="st16" fill="none"/>
  <g fill="#ed9121">
    <path fill="#ed9121" d="m662.4 141.7 2.258-4.895h-2.969v-0.8086h3.949v0.6406l-2.246 5.062h-0.9922z"/>
  </g>
  <path stroke-linejoin="round" d="m702.3 165.1v-8.5" stroke="#ed9121" stroke-linecap="round" stroke-miterlimit="3" stroke-width=".5" class="st16" fill="none"/>
  <g fill="#ed9121">
    <path fill="#ed9121" d="m702.6 135.9q0.8125 0 1.285 0.375 0.4727 0.3711 0.4727 0.9961 0 0.8789-1.055 1.398 0.6719 0.3359 0.9531 0.707 0.2852 0.3711 0.2852 0.8281 0 0.707-0.5195 1.133-0.5195 0.4258-1.406 0.4258-0.9297 0-1.441-0.3984-0.5117-0.3984-0.5117-1.129 0-0.4766 0.2656-0.8555 0.2695-0.3828 0.8789-0.6797-0.5234-0.3125-0.7461-0.6602t-0.2227-0.7812q0-0.6211 0.4883-0.9883 0.4883-0.3711 1.273-0.3711zm-1.059 4.305q0 0.4062 0.2852 0.6328 0.2852 0.2227 0.7734 0.2227 0.5039 0 0.7812-0.2305 0.2812-0.2344 0.2812-0.6328 0-0.3164-0.2578-0.5781t-0.7812-0.4844l-0.1133-0.0508q-0.5156 0.2266-0.7422 0.5-0.2266 0.2695-0.2266 0.6211zm1.051-3.598q-0.3906 0-0.6289 0.1953-0.2383 0.1914-0.2383 0.5234 0 0.2031 0.0859 0.3633t0.25 0.293q0.1641 0.1289 0.5547 0.3125 0.4688-0.207 0.6602-0.4336 0.1953-0.2305 0.1953-0.5352 0-0.332-0.2422-0.5234-0.2383-0.1953-0.6367-0.1953z"/>
  </g>
  <path stroke-linejoin="round" d="m741.2 165.1v-8.5" stroke="#ed9121" stroke-linecap="round" stroke-miterlimit="3" stroke-width=".5" class="st16" fill="none"/>
  <g fill="#ed9121">
    <path fill="#ed9121" d="m743.4 138.4q0 1.688-0.6797 2.52t-2.047 0.832q-0.5195 0-0.7461-0.0625v-0.7695q0.3477 0.0977 0.6992 0.0977 0.9297 0 1.387-0.5 0.457-0.5 0.5-1.57h-0.0469q-0.2305 0.3516-0.5586 0.5078-0.3242 0.1562-0.7617 0.1562-0.7578 0-1.191-0.4727-0.4336-0.4726-0.4336-1.297 0-0.8945 0.5-1.422 0.5039-0.5312 1.371-0.5312 0.6094 0 1.062 0.2969 0.4531 0.2969 0.6992 0.8633 0.2461 0.5625 0.2461 1.352zm-1.992-1.75q-0.4766 0-0.7305 0.3125-0.2539 0.3086-0.2539 0.8711 0 0.4883 0.2344 0.7695 0.2383 0.2773 0.7188 0.2773 0.4648 0 0.7812-0.2773 0.3164-0.2774 0.3164-0.6484 0-0.3477-0.1367-0.6484-0.1328-0.3047-0.375-0.4805t-0.5547-0.1758z"/>
  </g>
  <path stroke-linejoin="round" d="m778.8 165.1v-8.5" stroke="#ed9121" stroke-linecap="round" stroke-miterlimit="3" stroke-width=".5" class="st16" fill="none"/>
  <g fill="#ed9121">
    <path d="m777.7 141.7h-0.918v-3.688q0-0.6602 0.0312-1.047-0.0899 0.0937-0.2227 0.207-0.1289 0.1133-0.875 0.7188l-0.4609-0.582 1.68-1.32h0.7656v5.711z"/>
    <path d="m783.5 138.8q0 1.488-0.4805 2.211-0.4766 0.7226-1.461 0.7226-0.9531 0-1.445-0.7461-0.4922-0.7461-0.4922-2.188 0-1.512 0.4766-2.227 0.4805-0.7188 1.461-0.7188 0.957 0 1.449 0.75 0.4922 0.75 0.4922 2.195zm-2.949 0q0 1.168 0.2383 1.668 0.2422 0.5 0.7695 0.5 0.5274 0 0.7695-0.5078 0.2461-0.5078 0.2461-1.66 0-1.148-0.2461-1.66-0.2422-0.5156-0.7695-0.5156t-0.7695 0.5039q-0.2383 0.5039-0.2383 1.672z"/>
  </g>
  <path stroke-linejoin="round" d="m817.2 165.1v-8.5" stroke="#ed9121" stroke-linecap="round" stroke-miterlimit="3" stroke-width=".5" class="st16" fill="none"/>
  <g fill="#ed9121">
    <path d="m816.1 141.7h-0.918v-3.688q0-0.6602 0.0312-1.047-0.0898 0.0937-0.2226 0.207-0.1289 0.1133-0.875 0.7188l-0.4609-0.582 1.68-1.32h0.7656v5.711z"/>
    <path d="m820.7 141.7h-0.918v-3.688q0-0.6602 0.0312-1.047-0.0898 0.0937-0.2226 0.207-0.1289 0.1133-0.875 0.7188l-0.4609-0.582 1.68-1.32h0.7656v5.711z"/>
  </g>
  <path stroke-linejoin="round" d="m854.7 165.1v-8.5" stroke="#ed9121" stroke-linecap="round" stroke-miterlimit="3" stroke-width=".5" class="st16" fill="none"/>
  <g fill="#ed9121">
    <path d="m853.6 141.7h-0.918v-3.688q0-0.6602 0.0312-1.047-0.0898 0.0937-0.2226 0.207-0.1289 0.1133-0.875 0.7188l-0.4609-0.582 1.68-1.32h0.7656v5.711z"/>
    <path d="m859.4 141.7h-3.871v-0.6953l1.473-1.48q0.6524-0.668 0.8633-0.9453 0.2148-0.2812 0.3125-0.5274 0.0977-0.2461 0.0977-0.5273 0-0.3867-0.2344-0.6094-0.2305-0.2226-0.6406-0.2226-0.3281 0-0.6367 0.1211-0.3047 0.1211-0.707 0.4375l-0.4961-0.6055q0.4766-0.4023 0.9258-0.5703t0.957-0.168q0.7969 0 1.277 0.418 0.4805 0.4141 0.4805 1.117 0 0.3867-0.1406 0.7344-0.1367 0.3477-0.4258 0.7188-0.2852 0.3672-0.9531 0.9961l-0.9922 0.9609v0.0391h2.711v0.8086z"/>
  </g>
  <g fill="#625986">
    <path fill="#fff" d="m200.1 474.7h5.704v2.417h-1.187l-3.56 10.91h-3.604l-3.454-10.91h-1.283v-2.417h5.713v2.417h-1.424l2.32 7.559 2.312-7.559h-1.538v-2.417z"/>
  </g>
  <g fill="#fff">
    <path d="m196.6 510.2h5.704v2.417h-1.187l-3.56 10.91h-3.604l-3.454-10.91h-1.283v-2.417h5.713v2.417h-1.424l2.32 7.559 2.312-7.559h-1.538v-2.417z"/>
    <path d="m203.5 510.2h5.704v2.408h-1.406v8.508h1.406v2.408h-5.704v-2.408h1.38v-8.508h-1.38v-2.408z"/>
  </g>
  <rect class="st6" height="21.3" width="32.9" stroke-miterlimit="3" y="472.6" x="335.1" fill="#ed9121"/>
  <rect class="st7" height="21.3" width="57.8" stroke-miterlimit="3" y="295.4" x="587.4" fill="#ed9121"/>
  <g transform="translate(556.4 -441.4)">
    <path id="timeline-button-1" stroke-linejoin="round" d="m56 747.5c0.1-2.8 2.4-5 5.2-4.9 2.7 0.1 4.8 2.2 4.9 4.9 0.1 2.8-2.1 5.1-4.9 5.2s-5.1-2.1-5.2-4.9v-0.3z" stroke-opacity=".7843" fill-opacity=".7059" class="st15" stroke="#940c17" stroke-linecap="round" stroke-miterlimit="3" stroke-width=".5" fill="#ed2939"/>
  </g>
  <rect class="st7" height="21.3" width="38.6" stroke-miterlimit="3" y="472.6" x="587.4" fill="#ed9121"/>
  <rect class="st7" height="21.3" width="269.4" stroke-miterlimit="3" y="506.8" x="625.9" fill="#ed9121"/>
  <g fill="#fff">
    <path d="m645 520.4h-4.038v-7.139h4.038v0.9863h-2.871v1.943h2.69v0.9766h-2.69v2.241h2.871v0.9912z"/>
    <path d="m647.7 520.4-2.051-5.4h1.211l1.099 3.14q0.2832 0.791 0.3418 1.279h0.0391q0.0439-0.3516 0.3418-1.279l1.099-3.14h1.221l-2.061 5.4h-1.24z"/>
    <path d="m656.6 517.7q0 1.323-0.6787 2.065-0.6787 0.7422-1.89 0.7422-0.7568 0-1.338-0.3418-0.5811-0.3418-0.8936-0.9814t-0.3125-1.484q0-1.313 0.6738-2.051 0.6738-0.7373 1.899-0.7373 1.172 0 1.855 0.7568 0.6836 0.752 0.6836 2.031zm-3.931 0q0 1.87 1.382 1.87 1.367 0 1.367-1.87 0-1.851-1.377-1.851-0.7227 0-1.05 0.4785-0.3223 0.4785-0.3223 1.372z"/>
    <path d="m659.1 520.4h-1.147v-7.598h1.147v7.598z"/>
    <path d="m664.5 520.4-0.1611-0.708h-0.0586q-0.2393 0.376-0.6836 0.5908-0.4394 0.2148-1.006 0.2148-0.9814 0-1.465-0.4883-0.4834-0.4883-0.4834-1.479v-3.53h1.157v3.33q0 0.6201 0.2539 0.9326 0.2539 0.3076 0.7959 0.3076 0.7227 0 1.06-0.4297 0.3418-0.4346 0.3418-1.45v-2.69h1.152v5.4h-0.9033z"/>
    <path d="m669.1 519.5q0.4199 0 0.8398-0.1318v0.8643q-0.1904 0.083-0.4932 0.1367-0.2978 0.0586-0.6201 0.0586-1.631 0-1.631-1.719v-2.91h-0.7373v-0.5078l0.791-0.4199 0.3906-1.143h0.708v1.201h1.538v0.8691h-1.538v2.891q0 0.415 0.2051 0.6152 0.21 0.1953 0.5469 0.1953z"/>
    <path d="m672.1 520.4h-1.147v-5.4h1.147v5.4zm-1.216-6.831q0-0.3076 0.166-0.4736 0.1709-0.166 0.4834-0.166 0.3027 0 0.4688 0.166 0.1709 0.166 0.1709 0.4736 0 0.293-0.1709 0.4639-0.166 0.166-0.4688 0.166-0.3125 0-0.4834-0.166-0.166-0.1709-0.166-0.4639z"/>
    <path d="m678.6 517.7q0 1.323-0.6787 2.065-0.6787 0.7422-1.89 0.7422-0.7568 0-1.338-0.3418-0.5811-0.3418-0.8936-0.9814t-0.3125-1.484q0-1.313 0.6738-2.051 0.6738-0.7373 1.899-0.7373 1.172 0 1.855 0.7568 0.6836 0.752 0.6836 2.031zm-3.931 0q0 1.87 1.382 1.87 1.367 0 1.367-1.87 0-1.851-1.377-1.851-0.7226 0-1.05 0.4785-0.3223 0.4785-0.3223 1.372z"/>
    <path d="m684.7 520.4h-1.152v-3.32q0-0.625-0.2539-0.9326-0.249-0.3076-0.7959-0.3076-0.7275 0-1.064 0.4297-0.3369 0.4297-0.3369 1.44v2.69h-1.147v-5.4h0.8984l0.1611 0.708h0.0586q0.2441-0.3857 0.6934-0.5957 0.4492-0.21 0.9961-0.21 1.943 0 1.943 1.978v3.521z"/>
    <path d="m689.6 520.4-0.2295-0.752h-0.0391q-0.3906 0.4932-0.7861 0.6738-0.3955 0.1758-1.016 0.1758-0.7959 0-1.245-0.4297-0.4443-0.4297-0.4443-1.216 0-0.835 0.6201-1.26 0.6201-0.4248 1.89-0.4639l0.9326-0.0293v-0.2881q0-0.5176-0.2441-0.7715-0.2393-0.2588-0.7471-0.2588-0.415 0-0.7959 0.1221t-0.7324 0.2881l-0.3711-0.8203q0.4395-0.2295 0.9619-0.3467 0.5225-0.1221 0.9863-0.1221 1.03 0 1.553 0.4492 0.5273 0.4492 0.5273 1.411v3.638h-0.8203zm-1.709-0.7812q0.625 0 1.001-0.3467 0.3809-0.3516 0.3809-0.9814v-0.4688l-0.6934 0.0293q-0.8105 0.0293-1.182 0.2734-0.3662 0.2392-0.3662 0.7373 0 0.3613 0.2148 0.5615 0.2148 0.1953 0.6445 0.1953z"/>
    <path d="m694.8 514.9q0.3467 0 0.5713 0.0488l-0.1123 1.069q-0.2441-0.0586-0.5078-0.0586-0.6885 0-1.118 0.4492-0.4248 0.4492-0.4248 1.167v2.822h-1.147v-5.4h0.8984l0.1514 0.9522h0.0586q0.2686-0.4834 0.6982-0.7666 0.4346-0.2832 0.9326-0.2832z"/>
    <path d="m695.5 515h1.25l1.099 3.062q0.249 0.6543 0.332 1.23h0.0391q0.0439-0.2686 0.1611-0.6494 0.1172-0.3857 1.24-3.643h1.24l-2.31 6.118q-0.6299 1.685-2.1 1.685-0.3809 0-0.7422-0.083v-0.9082q0.2588 0.0586 0.5908 0.0586 0.8301 0 1.167-0.9619l0.2002-0.5078-2.168-5.4z"/>
    <path d="m709.2 515.4q0 1.118-0.7324 1.714-0.7324 0.5957-2.085 0.5957h-0.7422v2.671h-1.167v-7.139h2.056q1.338 0 2.002 0.5469 0.6689 0.5469 0.6689 1.611zm-3.56 1.328h0.6201q0.8984 0 1.318-0.3125 0.4199-0.3125 0.4199-0.9766 0-0.6152-0.376-0.918-0.376-0.3027-1.172-0.3027h-0.8106v2.51z"/>
    <path d="m713.2 514.9q0.3467 0 0.5713 0.0488l-0.1123 1.069q-0.2441-0.0586-0.5078-0.0586-0.6885 0-1.118 0.4492-0.4248 0.4492-0.4248 1.167v2.822h-1.147v-5.4h0.8984l0.1514 0.9522h0.0586q0.2686-0.4834 0.6982-0.7666 0.4346-0.2832 0.9326-0.2832z"/>
    <path d="m719.6 517.7q0 1.323-0.6787 2.065-0.6787 0.7422-1.89 0.7422-0.7568 0-1.338-0.3418-0.581-0.3418-0.8936-0.9814-0.3125-0.6396-0.3125-1.484 0-1.313 0.6738-2.051 0.6738-0.7373 1.899-0.7373 1.172 0 1.855 0.7568 0.6836 0.752 0.6836 2.031zm-3.931 0q0 1.87 1.382 1.87 1.367 0 1.367-1.87 0-1.851-1.377-1.851-0.7227 0-1.05 0.4785-0.3223 0.4785-0.3223 1.372z"/>
    <path d="m722.9 519.5q0.4199 0 0.8398-0.1318v0.8643q-0.1904 0.083-0.4932 0.1367-0.2978 0.0586-0.6201 0.0586-1.631 0-1.631-1.719v-2.91h-0.7373v-0.5078l0.791-0.4199 0.3906-1.143h0.708v1.201h1.538v0.8691h-1.538v2.891q0 0.415 0.2051 0.6152 0.21 0.1953 0.5469 0.1953z"/>
    <path d="m729.6 517.7q0 1.323-0.6787 2.065-0.6787 0.7422-1.89 0.7422-0.7568 0-1.338-0.3418-0.581-0.3418-0.8936-0.9814-0.3125-0.6396-0.3125-1.484 0-1.313 0.6738-2.051 0.6738-0.7373 1.899-0.7373 1.172 0 1.855 0.7568 0.6836 0.752 0.6836 2.031zm-3.931 0q0 1.87 1.382 1.87 1.367 0 1.367-1.87 0-1.851-1.377-1.851-0.7227 0-1.05 0.4785-0.3223 0.4785-0.3223 1.372z"/>
    <path d="m733 519.5q0.4199 0 0.8398-0.1318v0.8643q-0.1904 0.083-0.4932 0.1367-0.2978 0.0586-0.6201 0.0586-1.631 0-1.631-1.719v-2.91h-0.7373v-0.5078l0.791-0.4199 0.3906-1.143h0.708v1.201h1.538v0.8691h-1.538v2.891q0 0.415 0.2051 0.6152 0.21 0.1953 0.5469 0.1953z"/>
    <path d="m734.1 515h1.25l1.099 3.062q0.249 0.6543 0.332 1.23h0.0391q0.0439-0.2686 0.1611-0.6494 0.1172-0.3857 1.24-3.643h1.24l-2.31 6.118q-0.6299 1.685-2.1 1.685-0.3809 0-0.7422-0.083v-0.9082q0.2588 0.0586 0.5908 0.0586 0.8301 0 1.167-0.9619l0.2002-0.5078-2.168-5.4z"/>
    <path d="m743 520.5q-1.025 0-1.592-0.7373h-0.0684q0.0684 0.6836 0.0684 0.8301v2.212h-1.147v-7.803h0.9277q0.0391 0.1514 0.1611 0.7226h0.0586q0.5371-0.8203 1.611-0.8203 1.011 0 1.572 0.7324 0.5664 0.7324 0.5664 2.056 0 1.323-0.5762 2.065-0.5713 0.7422-1.582 0.7422zm-0.2783-4.658q-0.6836 0-1.001 0.4004-0.3125 0.4004-0.3125 1.279v0.1709q0 0.9863 0.3125 1.431 0.3125 0.4394 1.021 0.4394 0.5957 0 0.918-0.4883t0.3223-1.392q0-0.9082-0.3223-1.372-0.3174-0.4688-0.9375-0.4688z"/>
    <path d="m747.6 520.4h-1.147v-5.4h1.147v5.4zm-1.216-6.831q0-0.3076 0.166-0.4736 0.1709-0.166 0.4834-0.166 0.3027 0 0.4688 0.166 0.1709 0.166 0.1709 0.4736 0 0.293-0.1709 0.4639-0.166 0.166-0.4688 0.166-0.3125 0-0.4834-0.166-0.166-0.1709-0.166-0.4639z"/>
    <path d="m754 520.4h-1.152v-3.32q0-0.625-0.2539-0.9326-0.249-0.3076-0.7959-0.3076-0.7275 0-1.064 0.4297-0.3369 0.4297-0.3369 1.44v2.69h-1.147v-5.4h0.8984l0.1611 0.708h0.0586q0.2441-0.3857 0.6934-0.5957 0.4492-0.21 0.9961-0.21 1.943 0 1.943 1.978v3.521z"/>
    <path d="m760.2 515v0.6299l-0.9228 0.1709q0.127 0.1709 0.21 0.4199t0.083 0.5273q0 0.835-0.5762 1.313-0.5762 0.4785-1.587 0.4785-0.2588 0-0.4688-0.0391-0.3711 0.2295-0.3711 0.5371 0 0.1856 0.1709 0.2783 0.1758 0.0928 0.6396 0.0928h0.9424q0.8936 0 1.357 0.3809 0.4639 0.3809 0.4639 1.099 0 0.918-0.7568 1.416t-2.188 0.498q-1.104 0-1.685-0.3906t-0.581-1.113q0-0.498 0.3125-0.8398 0.3174-0.3369 0.8838-0.4688-0.2295-0.0977-0.3809-0.3125-0.1465-0.2197-0.1465-0.459 0-0.3027 0.1709-0.5127t0.5078-0.415q-0.4199-0.1807-0.6836-0.5859-0.2588-0.4102-0.2588-0.957 0-0.8789 0.5518-1.362 0.5566-0.4834 1.582-0.4834 0.2295 0 0.4785 0.0342 0.2539 0.0293 0.3809 0.0635h1.87zm-4.243 6.24q0 0.3711 0.332 0.5713 0.3369 0.2002 0.9424 0.2002 0.9375 0 1.396-0.2686 0.459-0.2686 0.459-0.7129 0-0.3516-0.2539-0.5029-0.249-0.1465-0.9326-0.1465h-0.8691q-0.4932 0-0.7861 0.2295-0.2881 0.2344-0.2881 0.6299zm0.4932-4.492q0 0.5078 0.2588 0.7812 0.2637 0.2734 0.752 0.2734 0.9961 0 0.9961-1.064 0-0.5274-0.249-0.8106-0.2441-0.2881-0.7471-0.2881-0.498 0-0.7568 0.2832-0.2539 0.2832-0.2539 0.8252z"/>
  </g>
  <path stroke-linejoin="round" d="m186.3 458.4h-7.1c-3.9 0-7.1-3.2-7.1-7.1v0-14.2c0-3.9-3.2-7.1-7.1-7.1 3.9 0 7.1-3.2 7.1-7.1v-14.1c0-3.9 3.2-7.1 7.1-7.1h7.1" stroke="#f00" stroke-linecap="round" stroke-miterlimit="3" stroke-width=".5" class="st11" fill="none"/>
  <g fill="#fff">
    <path fill="#fff" d="m147.8 422.8h-1.379l-0.7734-3q-0.043-0.1602-0.1484-0.6602-0.1016-0.5039-0.1172-0.6758-0.0234 0.2109-0.1172 0.6797-0.0937 0.4648-0.1445 0.6641l-0.7695 2.992h-1.375l-1.457-5.711h1.191l0.7305 3.117q0.1914 0.8633 0.2774 1.496 0.0234-0.2226 0.1055-0.6875 0.0859-0.4688 0.1602-0.7266l0.832-3.199h1.145l0.832 3.199q0.0547 0.2148 0.1367 0.6562t0.125 0.7578q0.0391-0.3047 0.125-0.7578 0.0859-0.457 0.1562-0.7383l0.7266-3.117h1.191l-1.453 5.711z"/>
    <path fill="#fff" d="m147.1 432.4h-3.289v-5.711h3.289v0.9922h-2.078v1.254h1.934v0.9922h-1.934v1.473h2.078v1z"/>
    <path fill="#fff" d="m143.5 436.3h1.777q1.215 0 1.762 0.3477 0.5508 0.3438 0.5508 1.098 0 0.5117-0.2422 0.8398-0.2383 0.3281-0.6367 0.3945v0.0391q0.543 0.1211 0.7812 0.4531 0.2422 0.332 0.2422 0.8828 0 0.7812-0.5664 1.219-0.5625 0.4375-1.531 0.4375h-2.137v-5.711zm1.211 2.262h0.7031q0.4922 0 0.7109-0.1523 0.2227-0.1523 0.2227-0.5039 0-0.3281-0.2422-0.4688-0.2383-0.1445-0.7578-0.1445h-0.6367v1.27zm0 0.9609v1.488h0.7891q0.5 0 0.7383-0.1914t0.2383-0.5859q0-0.7109-1.016-0.7109h-0.75z"/>
  </g>
  <path stroke-linejoin="round" d="m186.3 529.3h-7.1c-3.9 0-7.1-3.2-7.1-7.1v0-14.2c0-3.9-3.2-7.1-7.1-7.1 3.9 0 7.1-3.2 7.1-7.1v-14.1c0-3.9 3.2-7.1 7.1-7.1h7.1" stroke="#f00" stroke-linecap="round" stroke-miterlimit="3" stroke-width=".5" class="st11" fill="none"/>
  <g fill="#fff">
    <path fill="#fff" d="m144.7 479.3-1.375-4.48h-0.0351q0.0742 1.367 0.0742 1.824v2.656h-1.082v-5.711h1.648l1.352 4.367h0.0234l1.434-4.367h1.648v5.711h-1.129v-2.703q0-0.1914 0.004-0.4414 0.008-0.25 0.0547-1.328h-0.0352l-1.473 4.473h-1.109z"/>
    <path fill="#fff" d="m148.3 486q0 1.418-0.7031 2.18-0.7031 0.7617-2.016 0.7617-1.312 0-2.016-0.7617-0.7031-0.7617-0.7031-2.188t0.7031-2.176q0.707-0.7539 2.023-0.7539t2.012 0.7578q0.6992 0.7578 0.6992 2.18zm-4.168 0q0 0.957 0.3633 1.441 0.3633 0.4844 1.086 0.4844 1.449 0 1.449-1.926 0-1.93-1.441-1.93-0.7227 0-1.09 0.4883-0.3672 0.4844-0.3672 1.441z"/>
    <path fill="#fff" d="m143.5 492.8h1.777q1.215 0 1.762 0.3477 0.5508 0.3438 0.5508 1.098 0 0.5117-0.2422 0.8398-0.2383 0.3281-0.6367 0.3945v0.0391q0.543 0.1211 0.7812 0.4531 0.2422 0.332 0.2422 0.8828 0 0.7812-0.5664 1.219-0.5625 0.4375-1.531 0.4375h-2.137v-5.711zm1.211 2.262h0.7031q0.4922 0 0.7109-0.1523 0.2227-0.1523 0.2227-0.5039 0-0.3281-0.2422-0.4688-0.2383-0.1445-0.7578-0.1445h-0.6367v1.27zm0 0.9609v1.488h0.7891q0.5 0 0.7383-0.1914t0.2383-0.5859q0-0.7109-1.016-0.7109h-0.75z"/>
    <path fill="#fff" d="m144.7 508.1v-5.711h1.211v5.711h-1.211z"/>
    <path fill="#fff" d="m144.1 517.7v-5.711h1.211v4.711h2.316v1h-3.527z"/>
    <path fill="#fff" d="m147.1 527.3h-3.289v-5.711h3.289v0.9922h-2.078v1.254h1.934v0.9922h-1.934v1.473h2.078v1z"/>
  </g>
  <g stroke="#ed9121" fill="none">
    <g transform="translate(128.8 -535)">
      <path stroke-linejoin="round" d="m56 752.5h780.2" class="st17" stroke="#ed9121" stroke-linecap="round" stroke-miterlimit="3" stroke-dasharray="0, 1.50000000000000000" stroke-width="0.3" fill="none"/>
    </g>
    <g transform="translate(128.8 -464.1)">
      <path stroke-linejoin="round" d="m56 752.5h780.2" class="st17" stroke="#ed9121" stroke-linecap="round" stroke-miterlimit="3" stroke-dasharray="0, 1.50000000000000000" stroke-width="0.3" fill="none"/>
    </g>
    <g transform="translate(128.8 -428.7)">
      <path stroke-linejoin="round" d="m56 752.5h780.2" class="st17" stroke="#ed9121" stroke-linecap="round" stroke-miterlimit="3" stroke-dasharray="0, 1.50000000000000000" stroke-width="0.3" fill="none"/>
    </g>
    <g transform="translate(128.8 -357.8)">
      <path stroke-linejoin="round" d="m56 752.5h780.2" class="st17" stroke="#ed9121" stroke-linecap="round" stroke-miterlimit="3" stroke-dasharray="0, 1.50000000000000000" stroke-width="0.3" fill="none"/>
    </g>
    <g transform="translate(128.8 -286.9)">
      <path stroke-linejoin="round" d="m56 752.5h780.2" class="st17" stroke="#ed9121" stroke-linecap="round" stroke-miterlimit="3" stroke-dasharray="0, 1.50000000000000000" stroke-width="0.3" fill="none"/>
    </g>
  </g>
  <g fill="#ed9121" transform="translate(15.44 -38.94)">
    <path d="m879.1 200v-0.5h2v0.5h-2zm6 0h-2v-0.5h2v0.5zm2 0v-0.5h2v0.5h-2zm6 0h-2v-0.5h2v0.5zm2 0v-0.5h2v0.5h-2zm4 0v-0.5h2v0.5h-2zm4 0v-0.5h2v0.5h-2zm4 0v-0.5h2v0.5h-2zm6 0h-2v-0.5h2v0.5zm2 0v-0.5h2v0.5h-2zm4 0v-0.5h2v0.5h-2zm4 0v-0.5h2v0.5h-2zm4 0v-0.5h2v0.5h-2zm6 0h-2v-0.5h2v0.5zm2 0v-0.5h2v0.5h-2zm4 0v-0.5h2v0.5h-2zm4 0v-0.5h2v0.5h-2zm4 0v-0.5h2v0.5h-2z" class="st18" fill="#ed9121"/>
  </g>
  <rect width="69.2" y="260" x="893.9" height="21.3" class="st19" fill="url(#c)"/>
  <polyline transform="matrix(.9986 0 0 1 17.21 -38.93)" class="st20" points="878 405.2 947.3 405.2 947.3 426.5 878 426.5" fill="url(#d)"/>
  <polyline transform="translate(15.44 -38.94)" class="st21" points="878.5 476.1 947.7 476.1 947.7 497.4 878.5 497.4" fill="url(#e)"/>
  <polyline transform="matrix(.8941 0 0 1 116.2 -38.94)" class="st22" points="869.9 545.7 947.3 545.7 947.3 566.9 869.9 566.9" fill="url(#f)"/>
  <rect width="69.2" y="224.6" x="893.9" height="21.3" class="st23" fill="url(#b)"/>
</svg>
