<svg xmlns:rdf="http://www.w3.org/1999/02/22-rdf-syntax-ns#" xmlns="http://www.w3.org/2000/svg" xml:space="preserve" height="402" width="842" version="1.1" y="0px" x="0px" xmlns:cc="http://creativecommons.org/ns#" xmlns:dc="http://purl.org/dc/elements/1.1/" viewBox="123 123.6 841.99998 402.00001"><style type="text/css">
	.st0{fill:none;stroke:#FF0000;stroke-linecap:round;stroke-linejoin:round;stroke-miterlimit:3;stroke-dasharray:7,5;}
		.st1{fill:none;stroke:#5592C9;stroke-width:0.3;stroke-linecap:round;stroke-linejoin:round;stroke-miterlimit:3;stroke-opacity:0.3;stroke-dasharray:2.1,1.5;}
	.st2{fill:none;}
	.st3{fill:#625986;}
	.st4{font-family:&apos;TimesNewRomanPS-BoldMT&apos;;}
	.st5{font-size:18px;}
	.st6{fill:#FFFFFF;stroke:#FFFFFF;stroke-width:0.24;stroke-linecap:round;stroke-linejoin:round;stroke-miterlimit:3;}
	.st7{fill:#5B9BD5;stroke:#4271C6;stroke-width:0.24;stroke-linecap:round;stroke-linejoin:round;stroke-miterlimit:3;}
	.st8{fill:#FFFFFF;}
	.st9{font-family:&apos;Calibri-Bold&apos;;}
	.st10{font-size:10px;}
	.st11{fill:none;stroke:#FF0000;stroke-width:0.5;stroke-linecap:round;stroke-linejoin:round;stroke-miterlimit:3;}
	.st12{fill:#5B9BD5;}
	.st13{font-family:&apos;Calibri&apos;;}
	.st14{font-size:8px;}
		.st15{fill:#FF0000;fill-opacity:0.7;stroke:#000000;stroke-width:0.5;stroke-linecap:round;stroke-linejoin:round;stroke-miterlimit:3;stroke-opacity:0.8;}
	.st16{fill:none;stroke:#5B9BD5;stroke-width:0.5;stroke-linecap:round;stroke-linejoin:round;stroke-miterlimit:3;}
		.st17{fill:none;stroke:#5B9BD5;stroke-width:0.3;stroke-linecap:round;stroke-linejoin:round;stroke-miterlimit:3;stroke-dasharray:0,1.5;}
	.st18{fill:url(#g);}
	.st19{fill:url(#j);}
	.st20{fill:url(#k);}
	.st21{fill:url(#l);}
	.st22{fill:url(#h);}
	.st23{fill:url(#i);}
		.st24{fill:none;stroke:#4271C6;stroke-width:0.24;stroke-linecap:round;stroke-linejoin:round;stroke-miterlimit:3;stroke-dasharray:2,2;}
</style><g transform="matrix(0 1.08 -1 0 1249 -5.829)"><title>Directed line 1</title><path stroke-linejoin="round" d="m157.2 539.3h333.1" stroke="#f00" stroke-linecap="round" stroke-miterlimit="3" stroke-dasharray="7, 5" class="st0" fill="none"/></g><g transform="matrix(0 1.08 -1 0 1357 -5.824)"><title>Directed line 1.285</title><path stroke-linejoin="round" d="m157.2 539.3h333.1" stroke="#f00" stroke-linecap="round" stroke-miterlimit="3" stroke-dasharray="7, 5" class="st0" fill="none"/></g><g transform="matrix(0 -1 1 0 -333.2 134.2)"><title>Sheet.482</title><path stroke-linejoin="round" d="m-157.2 651.3h134.6" stroke-opacity=".3" stroke="#5592c9" stroke-linecap="round" stroke-miterlimit="3" stroke-dasharray="2.1, 1.5" stroke-width="0.3" class="st1" fill="none"/></g><g transform="matrix(0 1 -1 0 808 -.396)"><title>Sheet.477</title><path stroke-linejoin="round" d="m157.2 539.3h28.4" stroke-opacity=".3" stroke="#5592c9" stroke-linecap="round" stroke-miterlimit="3" stroke-dasharray="2.1, 1.5" stroke-width="0.3" class="st1" fill="none"/></g><g transform="matrix(0 -1 1 0 -316.2 311.4)"><title>Sheet.488</title><path stroke-linejoin="round" d="m-157.2 651.3h311.8" stroke-opacity=".3" stroke="#5592c9" stroke-linecap="round" stroke-miterlimit="3" stroke-dasharray="2.1, 1.5" stroke-width="0.3" class="st1" fill="none"/></g><g transform="matrix(0 -1 1 0 -299.8 205.1)"><title>Sheet.489</title><path stroke-linejoin="round" d="m-157.2 651.3h205.5" stroke-opacity=".3" stroke="#5592c9" stroke-linecap="round" stroke-miterlimit="3" stroke-dasharray="2.1, 1.5" stroke-width="0.3" class="st1" fill="none"/></g><g transform="matrix(0 -1 1 0 -265.8 276)"><title>Sheet.490</title><path stroke-linejoin="round" d="m-157.2 651.3h276.4" stroke-opacity=".3" stroke="#5592c9" stroke-linecap="round" stroke-miterlimit="3" stroke-dasharray="2.1, 1.5" stroke-width="0.3" class="st1" fill="none"/></g><g transform="matrix(0 -1 1 0 -63.93 311.4)"><title>Sheet.491</title><path stroke-linejoin="round" d="m-157.2 651.3h311.8" stroke-opacity=".3" stroke="#5592c9" stroke-linecap="round" stroke-miterlimit="3" stroke-dasharray="2.1, 1.5" stroke-width="0.3" class="st1" fill="none"/></g><g transform="matrix(0 -1 1 0 -25.38 345.4)"><title>Sheet.493</title><path stroke-linejoin="round" d="m-157.2 651.3h345.8" stroke-opacity=".3" stroke="#5592c9" stroke-linecap="round" stroke-miterlimit="3" stroke-dasharray="2.1, 1.5" stroke-width="0.3" class="st1" fill="none"/></g><g transform="translate(67 -546.7)"><title>Sheet.217</title><desc>I</desc><rect class="st2" height="20" width="152" y="732.5" x="56" fill="none"/><text transform="translate(128.5 747.9)" class="st3 st4 st5" font-size="18px" font-family="TimesNewRomanPS-BoldMT" fill="#625986">I</text>
</g><g transform="translate(67 -511.3)"><title>Sheet.229</title><desc>II</desc><rect class="st2" height="20" width="152" y="732.5" x="56" fill="none"/><text transform="translate(125 747.9)" class="st3 st4 st5" font-size="18px" font-family="TimesNewRomanPS-BoldMT" fill="#625986">II</text>
</g><g transform="translate(67 -475.8)"><title>Sheet.230</title><desc>III</desc><rect class="st2" height="20" width="152" y="732.5" x="56" fill="none"/><text transform="translate(121.5 747.9)" class="st3 st4 st5" font-size="18px" font-family="TimesNewRomanPS-BoldMT" fill="#625986">III</text>
</g><g transform="translate(67 -440.4)"><title>Sheet.231</title><desc>IV</desc><rect class="st2" height="20" width="152" y="732.5" x="56" fill="none"/><text transform="translate(122 747.9)" class="st3 st4 st5" font-size="18px" font-family="TimesNewRomanPS-BoldMT" fill="#625986">IV</text>
</g><g transform="translate(67 -405)"><title>Sheet.232</title><desc>V</desc><rect class="st2" height="20" width="152" y="732.5" x="56" fill="none"/><text transform="translate(125.5 747.9)" class="st3 st4 st5" font-size="18px" font-family="TimesNewRomanPS-BoldMT" fill="#625986">V</text>
</g><g transform="translate(67 -369.5)"><title>Sheet.233</title><desc>VI</desc><rect class="st2" height="20" width="152" y="732.5" x="56" fill="none"/><text transform="translate(122 747.9)" class="st3 st4 st5" font-size="18px" font-family="TimesNewRomanPS-BoldMT" fill="#625986">VI</text>
</g><g transform="translate(212.7 -546.1)"><title>Title</title><rect stroke-linejoin="round" class="st6" height="21.3" width="82.8" stroke="#fff" stroke-linecap="round" stroke-miterlimit="3" y="731.2" x="56" stroke-width="0.24" fill="#fff"/></g><g transform="translate(279.1 -510.6)"><title>Title.240</title><desc>Concepts</desc><rect stroke-linejoin="round" class="st7" height="21.3" width="560.3" stroke="#4271c6" stroke-linecap="round" stroke-miterlimit="3" y="731.2" x="56" stroke-width="0.24" fill="#5b9bd5"/><text transform="translate(70.16 744.8)" class="st8 st9 st10" font-size="10px" font-family="Calibri-Bold" fill="#ffffff"><tspan font-family="&apos;Open Sans&apos;" font-weight="bold">Concepts</tspan></text>
</g><g transform="translate(569.9 -475.2)"><title>Title.245</title><desc>Game Design</desc><rect stroke-linejoin="round" class="st7" height="21.3" width="269.4" stroke="#4271c6" stroke-linecap="round" stroke-miterlimit="3" y="731.2" x="56" stroke-width="0.24" fill="#5b9bd5"/><text transform="translate(70.16 744.8)" class="st8 st9 st10" font-size="10px" font-family="Calibri-Bold" fill="#ffffff"><tspan font-family="&apos;Open Sans&apos;" font-weight="bold">Game Design</tspan></text>
</g><g transform="translate(262.1 -439.8)"><title>Title.247</title><rect stroke-linejoin="round" class="st6" height="21.3" width="34" stroke="#fff" stroke-linecap="round" stroke-miterlimit="3" y="731.2" x="56" stroke-width="0.24" fill="#fff"/></g><g transform="translate(279.1 -404.3)"><title>Title.248</title><rect stroke-linejoin="round" class="st6" height="21.3" width="32.9" stroke="#fff" stroke-linecap="round" stroke-miterlimit="3" y="731.2" x="56" stroke-width="0.24" fill="#fff"/></g><g transform="translate(295.5 -368.9)"><title>Title.249</title><desc>Evolutionary Prototyping</desc><rect stroke-linejoin="round" class="st7" height="21.3" width="543.8" stroke="#4271c6" stroke-linecap="round" stroke-miterlimit="3" y="731.2" x="56" stroke-width="0.24" fill="#5b9bd5"/><text transform="translate(70.16 744.8)" class="st8 st9 st10" font-size="10px" font-family="Calibri-Bold" fill="#ffffff"><tspan font-family="&apos;Open Sans&apos;" font-weight="bold">Evolutionary Prototyping</tspan></text>
</g><g transform="translate(67 -334.1)"><title>Sheet.261</title><desc>V</desc><rect class="st2" height="20" width="152" y="732.5" x="56" fill="none"/><text transform="translate(125.5 747.9)" class="st3 st4 st5" font-size="18px" font-family="TimesNewRomanPS-BoldMT" fill="#625986">V</text>
</g><g transform="translate(67 -298.7)"><title>Sheet.262</title><desc>VI</desc><rect class="st2" height="20" width="152" y="732.5" x="56" fill="none"/><text transform="translate(122 747.9)" class="st3 st4 st5" font-size="18px" font-family="TimesNewRomanPS-BoldMT" fill="#625986">VI</text>
</g><g transform="translate(279.1 -333.9)"><title>Title.263</title><rect stroke-linejoin="round" class="st6" height="21.3" width="51" stroke="#fff" stroke-linecap="round" stroke-miterlimit="3" y="731.2" x="56" stroke-width="0.24" fill="#fff"/></g><g transform="translate(329.5 -298)"><title>Title.264</title><desc>Evolutionary Prototyping</desc><rect stroke-linejoin="round" class="st7" height="21.3" width="509.8" stroke="#4271c6" stroke-linecap="round" stroke-miterlimit="3" y="731.2" x="56" stroke-width="0.24" fill="#5b9bd5"/><text transform="translate(70.16 744.8)" class="st8 st9 st10" font-size="10px" font-family="Calibri-Bold" fill="#ffffff"><tspan font-family="&apos;Open Sans&apos;" font-weight="bold">Evolutionary Prototyping</tspan></text>
</g><g transform="matrix(0 -1 -1 0 711.4 226.4)"><title>Side brace</title><desc>C O R E</desc><path stroke-linejoin="round" d="m-157.2 525.1v7.1c0 3.9 3.2 7.1 7.1 7.1v0h14.2c3.9 0 7.1 3.2 7.1 7.1 0-3.9 3.2-7.1 7.1-7.1h14.1c3.9 0 7.1-3.2 7.1-7.1v-7.1" stroke="#f00" stroke-linecap="round" stroke-miterlimit="3" stroke-width=".5" class="st11" fill="none"/><g font-family="Calibri" font-size="8px" fill="#5b9bd5"><text transform="matrix(0 -1 -1 0 -116.8 568.5)" class="st12 st13 st14">C</text>
<text transform="matrix(0 -1 -1 0 -126.4 569)" class="st12 st13 st14">O</text>
<text transform="matrix(0 -1 -1 0 -136 568.5)" class="st12 st13 st14">R</text>
<text transform="matrix(0 -1 -1 0 -145.6 568.3)" class="st12 st13 st14">E</text>
</g></g><g transform="translate(565.2 -374.5)"><title>Circle</title><path stroke-linejoin="round" d="m56 747.5c0.1-2.8 2.4-5 5.2-4.9 2.7 0.1 4.8 2.2 4.9 4.9 0.1 2.8-2.1 5.1-4.9 5.2s-5.1-2.1-5.2-4.9v-0.3z" stroke-opacity=".8" fill-opacity=".7" stroke="#000" stroke-linecap="round" stroke-miterlimit="3" stroke-width=".5" class="st15" fill="#f00"/></g><g transform="translate(374.9 -304.3)"><title>Circle.301</title><path stroke-linejoin="round" d="m56 747.5c0.1-2.8 2.4-5 5.2-4.9 2.7 0.1 4.8 2.2 4.9 4.9 0.1 2.8-2.1 5.1-4.9 5.2s-5.1-2.1-5.2-4.9v-0.3z" stroke-opacity=".8" fill-opacity=".7" stroke="#000" stroke-linecap="round" stroke-miterlimit="3" stroke-width=".5" class="st15" fill="#f00"/></g><g transform="translate(602.3 -304.3)"><title>Circle.302</title><path stroke-linejoin="round" d="m56 747.5c0.1-2.8 2.4-5 5.2-4.9 2.7 0.1 4.8 2.2 4.9 4.9 0.1 2.8-2.1 5.1-4.9 5.2s-5.1-2.1-5.2-4.9v-0.3z" stroke-opacity=".8" fill-opacity=".7" stroke="#000" stroke-linecap="round" stroke-miterlimit="3" stroke-width=".5" class="st15" fill="#f00"/></g><g transform="translate(179.9 -582.9)"><title>Sheet.402</title><g><title>Line timeline.325</title><g><title>Sheet.326</title></g><g><title>Sheet.327</title><path stroke-linejoin="round" d="m56 739.7h200.1" stroke="#5b9bd5" stroke-linecap="round" stroke-miterlimit="3" stroke-width=".5" class="st16" fill="none"/></g><g transform="translate(-35.43)"><title>Sheet.328</title><path stroke-linejoin="round" d="m91.4 749.5v-19.4" stroke="#5b9bd5" stroke-linecap="round" stroke-miterlimit="3" stroke-width=".5" class="st16" fill="none"/><text transform="translate(83.31 712.4)" class="st12 st13 st14" font-size="8px" font-family="Calibri" fill="#5b9bd5">2015</text>
</g><g transform="translate(164.7)"><title>Sheet.329</title><path stroke-linejoin="round" d="m91.4 749.5v-19.4" stroke="#5b9bd5" stroke-linecap="round" stroke-miterlimit="3" stroke-width=".5" class="st16" fill="none"/><text transform="translate(83.31 712.4)" class="st12 st13 st14" font-size="8px" font-family="Calibri" fill="#5b9bd5">2016</text>
</g><g transform="translate(-35.43 -35.71)"><title>Sheet.330</title></g><g transform="translate(164.7 -35.71)"><title>Sheet.331</title></g><g><title>Sheet.332</title></g><g transform="translate(-6.378)"><title>Sheet.333</title></g><g transform="translate(42.5)"><title>Interim.354</title><g><title>Sheet.355</title></g><path stroke-linejoin="round" d="m62.9 744v-8.5" stroke="#5b9bd5" stroke-linecap="round" stroke-miterlimit="3" stroke-width=".5" class="st16" fill="none"/><text transform="translate(60.9 720.6)" class="st12 st13 st14" font-size="8px" font-family="Calibri" fill="#5b9bd5">4</text>
</g><g transform="translate(92.34)"><title>Interim.352</title><g><title>Sheet.353</title></g><path stroke-linejoin="round" d="m62.9 744v-8.5" stroke="#5b9bd5" stroke-linecap="round" stroke-miterlimit="3" stroke-width=".5" class="st16" fill="none"/><text transform="translate(60.9 720.6)" class="st12 st13 st14" font-size="8px" font-family="Calibri" fill="#5b9bd5">7</text>
</g><g transform="translate(140.8)"><title>Interim.350</title><g><title>Sheet.351</title></g><path stroke-linejoin="round" d="m65 744v-8.5" stroke="#5b9bd5" stroke-linecap="round" stroke-miterlimit="3" stroke-width=".5" class="st16" fill="none"/><text transform="translate(60.9 720.6)" class="st12 st13 st14" font-size="8px" font-family="Calibri" fill="#5b9bd5">10</text>
</g></g><g transform="translate(200.2)"><title>Line timeline.371</title><g><title>Sheet.372</title></g><g><title>Sheet.373</title><path stroke-linejoin="round" d="m56 739.7h457.5" stroke="#5b9bd5" stroke-linecap="round" stroke-miterlimit="3" stroke-width=".5" class="st16" fill="none"/></g><g transform="translate(-35.43)"><title>Sheet.374</title><path stroke-linejoin="round" d="m91.4 749.5v-19.4" stroke="#5b9bd5" stroke-linecap="round" stroke-miterlimit="3" stroke-width=".5" class="st16" fill="none"/><text transform="translate(83.31 712.4)" class="st12 st13 st14" font-size="8px" font-family="Calibri" fill="#5b9bd5">2016</text>
</g><g transform="translate(422)"><title>Sheet.375</title><path stroke-linejoin="round" d="m91.4 749.5v-19.4" stroke="#5b9bd5" stroke-linecap="round" stroke-miterlimit="3" stroke-width=".5" class="st16" fill="none"/><text transform="translate(83.31 712.4)" class="st12 st13 st14" font-size="8px" font-family="Calibri" fill="#5b9bd5">2017</text>
</g><g transform="translate(-35.43 -35.71)"><title>Sheet.376</title></g><g transform="translate(422 -35.71)"><title>Sheet.377</title></g><g><title>Sheet.378</title></g><g transform="translate(-6.378)"><title>Sheet.379</title></g><g transform="translate(31.95)"><title>Interim.400</title><g><title>Sheet.401</title></g><path stroke-linejoin="round" d="m62.9 744v-8.5" stroke="#5b9bd5" stroke-linecap="round" stroke-miterlimit="3" stroke-width=".5" class="st16" fill="none"/><text transform="translate(60.9 720.6)" class="st12 st13 st14" font-size="8px" font-family="Calibri" fill="#5b9bd5">2</text>
</g><g transform="translate(68.09)"><title>Interim.398</title><g><title>Sheet.399</title></g><path stroke-linejoin="round" d="m62.9 744v-8.5" stroke="#5b9bd5" stroke-linecap="round" stroke-miterlimit="3" stroke-width=".5" class="st16" fill="none"/><text transform="translate(60.9 720.6)" class="st12 st13 st14" font-size="8px" font-family="Calibri" fill="#5b9bd5">3</text>
</g><g transform="translate(107)"><title>Interim.396</title><g><title>Sheet.397</title></g><path stroke-linejoin="round" d="m62.9 744v-8.5" stroke="#5b9bd5" stroke-linecap="round" stroke-miterlimit="3" stroke-width=".5" class="st16" fill="none"/><text transform="translate(60.9 720.6)" class="st12 st13 st14" font-size="8px" font-family="Calibri" fill="#5b9bd5">4</text>
</g><g transform="translate(144.5)"><title>Interim.394</title><g><title>Sheet.395</title></g><path stroke-linejoin="round" d="m62.9 744v-8.5" stroke="#5b9bd5" stroke-linecap="round" stroke-miterlimit="3" stroke-width=".5" class="st16" fill="none"/><text transform="translate(60.9 720.6)" class="st12 st13 st14" font-size="8px" font-family="Calibri" fill="#5b9bd5">5</text>
</g><g transform="translate(182.9)"><title>Interim.392</title><g><title>Sheet.393</title></g><path stroke-linejoin="round" d="m62.9 744v-8.5" stroke="#5b9bd5" stroke-linecap="round" stroke-miterlimit="3" stroke-width=".5" class="st16" fill="none"/><text transform="translate(60.9 720.6)" class="st12 st13 st14" font-size="8px" font-family="Calibri" fill="#5b9bd5">6</text>
</g><g transform="translate(220.4)"><title>Interim.390</title><g><title>Sheet.391</title></g><path stroke-linejoin="round" d="m62.9 744v-8.5" stroke="#5b9bd5" stroke-linecap="round" stroke-miterlimit="3" stroke-width=".5" class="st16" fill="none"/><text transform="translate(60.9 720.6)" class="st12 st13 st14" font-size="8px" font-family="Calibri" fill="#5b9bd5">7</text>
</g><g transform="translate(259.3)"><title>Interim.388</title><g><title>Sheet.389</title></g><path stroke-linejoin="round" d="m62.9 744v-8.5" stroke="#5b9bd5" stroke-linecap="round" stroke-miterlimit="3" stroke-width=".5" class="st16" fill="none"/><text transform="translate(60.9 720.6)" class="st12 st13 st14" font-size="8px" font-family="Calibri" fill="#5b9bd5">8</text>
</g><g transform="translate(298.2)"><title>Interim</title><g><title>Sheet.387</title></g><path stroke-linejoin="round" d="m62.9 744v-8.5" stroke="#5b9bd5" stroke-linecap="round" stroke-miterlimit="3" stroke-width=".5" class="st16" fill="none"/><text transform="translate(60.9 720.6)" class="st12 st13 st14" font-size="8px" font-family="Calibri" fill="#5b9bd5">9</text>
</g><g transform="translate(333.7)"><title>Interim.354</title><g><title>Sheet.385</title></g><path stroke-linejoin="round" d="m65 744v-8.5" stroke="#5b9bd5" stroke-linecap="round" stroke-miterlimit="3" stroke-width=".5" class="st16" fill="none"/><text transform="translate(60.9 720.6)" class="st12 st13 st14" font-size="8px" font-family="Calibri" fill="#5b9bd5">10</text>
</g><g transform="translate(372.1)"><title>Interim.352</title><g><title>Sheet.383</title></g><path stroke-linejoin="round" d="m65 744v-8.5" stroke="#5b9bd5" stroke-linecap="round" stroke-miterlimit="3" stroke-width=".5" class="st16" fill="none"/><text transform="translate(60.9 720.6)" class="st12 st13 st14" font-size="8px" font-family="Calibri" fill="#5b9bd5">11</text>
</g><g transform="translate(409.6)"><title>Interim.350</title><g><title>Sheet.381</title></g><path stroke-linejoin="round" d="m65 744v-8.5" stroke="#5b9bd5" stroke-linecap="round" stroke-miterlimit="3" stroke-width=".5" class="st16" fill="none"/><text transform="translate(60.9 720.6)" class="st12 st13 st14" font-size="8px" font-family="Calibri" fill="#5b9bd5">12</text>
</g></g></g><g transform="translate(67 -263.9)"><title>Sheet.447</title><desc>V</desc><rect class="st2" height="20" width="152" y="732.5" x="56" fill="none"/><text transform="translate(125.5 747.9)" class="st3 st4 st5" font-size="18px" font-family="TimesNewRomanPS-BoldMT" fill="#625986">V</text>
</g><g transform="translate(67 -228.4)"><title>Sheet.448</title><desc>VI</desc><rect class="st2" height="20" width="152" y="732.5" x="56" fill="none"/><text transform="translate(122 747.9)" class="st3 st4 st5" font-size="18px" font-family="TimesNewRomanPS-BoldMT" fill="#625986">VI</text>
</g><g transform="translate(279.1 -262.6)"><title>Title.451</title><rect stroke-linejoin="round" class="st6" height="21.3" width="32.9" stroke="#fff" stroke-linecap="round" stroke-miterlimit="3" y="731.2" x="56" stroke-width="0.24" fill="#fff"/></g><g transform="translate(531.4 -439.8)"><title>Title.455</title><rect stroke-linejoin="round" class="st7" height="21.3" width="57.8" stroke="#4271c6" stroke-linecap="round" stroke-miterlimit="3" y="731.2" x="56" stroke-width="0.24" fill="#5b9bd5"/></g><g transform="translate(556.4 -445.4)"><title>Circle.461</title><path stroke-linejoin="round" d="m56 747.5c0.1-2.8 2.4-5 5.2-4.9 2.7 0.1 4.8 2.2 4.9 4.9 0.1 2.8-2.1 5.1-4.9 5.2s-5.1-2.1-5.2-4.9v-0.3z" stroke-opacity=".8" fill-opacity=".7" stroke="#000" stroke-linecap="round" stroke-miterlimit="3" stroke-width=".5" class="st15" fill="#f00"/></g><g transform="translate(531.4 -262.6)"><title>Title.464</title><rect stroke-linejoin="round" class="st7" height="21.3" width="38.6" stroke="#4271c6" stroke-linecap="round" stroke-miterlimit="3" y="731.2" x="56" stroke-width="0.24" fill="#5b9bd5"/></g><g transform="translate(569.9 -228.4)"><title>Title.465</title><desc>Evolutionary Prototyping</desc><rect stroke-linejoin="round" class="st7" height="21.3" width="269.4" stroke="#4271c6" stroke-linecap="round" stroke-miterlimit="3" y="731.2" x="56" stroke-width="0.24" fill="#5b9bd5"/><text transform="translate(70.16 744.8)" class="st8 st9 st10" font-size="10px" font-family="Calibri-Bold" fill="#ffffff"><tspan font-family="&apos;Open Sans&apos;" font-weight="bold">Evolutionary Prototyping</tspan></text>
</g><g transform="matrix(0 -1 -1 0 711.4 297.2)"><title>Side brace.466</title><desc>W E B</desc><path stroke-linejoin="round" d="m-157.2 525.1v7.1c0 3.9 3.2 7.1 7.1 7.1v0h14.2c3.9 0 7.1 3.2 7.1 7.1 0-3.9 3.2-7.1 7.1-7.1h14.1c3.9 0 7.1-3.2 7.1-7.1v-7.1" stroke="#f00" stroke-linecap="round" stroke-miterlimit="3" stroke-width=".5" class="st11" fill="none"/><g font-family="Calibri" font-size="8px" fill="#5b9bd5"><text transform="matrix(0 -1 -1 0 -121.6 569.9)" class="st12 st13 st14">W</text>
<text transform="matrix(0 -1 -1 0 -131.2 568.3)" class="st12 st13 st14">E</text>
<text transform="matrix(0 -1 -1 0 -140.8 568.6)" class="st12 st13 st14">B</text>
</g></g><g transform="matrix(0 -1 -1 0 711.4 368.1)"><title>Side brace.467</title><desc>M O B I L E</desc><path stroke-linejoin="round" d="m-157.2 525.1v7.1c0 3.9 3.2 7.1 7.1 7.1v0h14.2c3.9 0 7.1 3.2 7.1 7.1 0-3.9 3.2-7.1 7.1-7.1h14.1c3.9 0 7.1-3.2 7.1-7.1v-7.1" stroke="#f00" stroke-linecap="round" stroke-miterlimit="3" stroke-width=".5" class="st11" fill="none"/><g font-family="Calibri" font-size="8px" fill="#5b9bd5"><text transform="matrix(0 -1 -1 0 -107.2 569.8)" class="st12 st13 st14">M</text>
<text transform="matrix(0 -1 -1 0 -116.8 569)" class="st12 st13 st14">O</text>
<text transform="matrix(0 -1 -1 0 -126.4 568.6)" class="st12 st13 st14">B</text>
<text transform="matrix(0 -1 -1 0 -136 567.4)" class="st12 st13 st14">I</text>
<text transform="matrix(0 -1 -1 0 -145.6 568)" class="st12 st13 st14">L</text>
<text transform="matrix(0 -1 -1 0 -155.2 568.3)" class="st12 st13 st14">E</text>
</g></g><g transform="translate(128.8 -539)"><title>Directed line 1.468</title><path stroke-linejoin="round" d="m56 752.5h708.7" stroke="#5b9bd5" stroke-linecap="round" stroke-miterlimit="3" stroke-dasharray="0, 1.5" stroke-width="0.3" class="st17" fill="none"/></g><g transform="translate(128.8 -468.1)"><title>Directed line 1.471</title><path stroke-linejoin="round" d="m56 752.5h708.7" stroke="#5b9bd5" stroke-linecap="round" stroke-miterlimit="3" stroke-dasharray="0, 1.5" stroke-width="0.3" class="st17" fill="none"/></g><g transform="translate(128.8 -432.7)"><title>Directed line 1.472</title><path stroke-linejoin="round" d="m56 752.5h708.7" stroke="#5b9bd5" stroke-linecap="round" stroke-miterlimit="3" stroke-dasharray="0, 1.5" stroke-width="0.3" class="st17" fill="none"/></g><g transform="translate(128.8 -361.8)"><title>Directed line 1.473</title><path stroke-linejoin="round" d="m56 752.5h708.7" stroke="#5b9bd5" stroke-linecap="round" stroke-miterlimit="3" stroke-dasharray="0, 1.5" stroke-width="0.3" class="st17" fill="none"/></g><g transform="translate(128.8 -290.9)"><title>Directed line 1.474</title><path stroke-linejoin="round" d="m56 752.5h708.7" stroke="#5b9bd5" stroke-linecap="round" stroke-miterlimit="3" stroke-dasharray="0, 1.5" stroke-width="0.3" class="st17" fill="none"/></g><g fill="none"><line y2="220.6" y1="220.6" x2="963.6" x1="894.3" class="st2"/><line y2="241.9" y1="241.9" x2="894.3" x1="963.6" class="st2"/><line y2="256" y1="256" x2="963.6" x1="894.3" class="st2"/><line y2="277.3" y1="277.3" x2="894.3" x1="963.6" class="st2"/><line y2="383.6" y1="383.6" x2="893.4" x1="962.7" class="st2"/><line y2="362.3" y1="362.3" x2="962.7" x1="893.4" class="st2"/><line y2="454.5" y1="454.5" x2="893.9" x1="963.1" class="st2"/><line y2="433.2" y1="433.2" x2="963.1" x1="893.9" class="st2"/><line y2="524" y1="524" x2="885.3" x1="962.7" class="st2"/><line y2="502.8" y1="502.8" x2="962.7" x1="885.3" class="st2"/></g><g transform="translate(15.44 -42.92)"><linearGradient id="g" x1="879.1" gradientUnits="userSpaceOnUse" y1="643.3" gradientTransform="matrix(1 0 0 -1 0 843.1)" x2="949.1" y2="643.3"><stop stop-color="#5B9BD5" offset=".57"/><stop stop-color="#fff" stop-opacity="0" offset="1"/></linearGradient><path d="m879.1 200v-0.5h2v0.5h-2zm6 0h-2v-0.5h2v0.5zm2 0v-0.5h2v0.5h-2zm6 0h-2v-0.5h2v0.5zm2 0v-0.5h2v0.5h-2zm4 0v-0.5h2v0.5h-2zm4 0v-0.5h2v0.5h-2zm4 0v-0.5h2v0.5h-2zm6 0h-2v-0.5h2v0.5zm2 0v-0.5h2v0.5h-2zm4 0v-0.5h2v0.5h-2zm4 0v-0.5h2v0.5h-2zm4 0v-0.5h2v0.5h-2zm6 0h-2v-0.5h2v0.5zm2 0v-0.5h2v0.5h-2zm4 0v-0.5h2v0.5h-2zm4 0v-0.5h2v0.5h-2zm4 0v-0.5h2v0.5h-2z" class="st18" fill="url(#g)"/></g><linearGradient id="j" x1="878.9" gradientUnits="userSpaceOnUse" y1="533.5" gradientTransform="matrix(1 0 0 -1 15.44 800.2)" x2="948.2" y2="533.5"><stop stop-color="#5B9BD5" offset=".2"/><stop stop-color="#5F9DD6" stop-opacity=".8162" offset=".347"/><stop stop-color="#6AA4D9" stop-opacity=".6437" offset=".485"/><stop stop-color="#7DB0DE" stop-opacity=".4756" offset=".6195"/><stop stop-color="#98C0E5" stop-opacity=".3103" offset=".7518"/><stop stop-color="#BAD5ED" stop-opacity=".1485" offset=".8812"/><stop stop-color="#E0ECF7" stop-opacity="0" offset="1"/></linearGradient><rect height="21.3" width="69.3" y="256" x="894.3" class="st19" fill="url(#j)"/><linearGradient id="k" x1="878" gradientUnits="userSpaceOnUse" y1="427.2" gradientTransform="matrix(1 0 0 -1 0 843.1)" x2="947.3" y2="427.2"><stop stop-color="#5B9BD5" offset=".2"/><stop stop-color="#5F9DD6" stop-opacity=".8162" offset=".347"/><stop stop-color="#6AA4D9" stop-opacity=".6437" offset=".485"/><stop stop-color="#7DB0DE" stop-opacity=".4756" offset=".6195"/><stop stop-color="#98C0E5" stop-opacity=".3103" offset=".7518"/><stop stop-color="#BAD5ED" stop-opacity=".1485" offset=".8812"/><stop stop-color="#E0ECF7" stop-opacity="0" offset="1"/></linearGradient><polyline points="878 405.2 947.3 405.2 947.3 426.5 878 426.5" fill="url(#k)" transform="translate(15.44 -42.92)" class="st20"/><linearGradient id="l" x1="878.5" gradientUnits="userSpaceOnUse" y1="356.3" gradientTransform="matrix(1 0 0 -1 0 843.1)" x2="947.8" y2="356.3"><stop stop-color="#5B9BD5" offset=".2"/><stop stop-color="#5F9DD6" stop-opacity=".8162" offset=".347"/><stop stop-color="#6AA4D9" stop-opacity=".6437" offset=".485"/><stop stop-color="#7DB0DE" stop-opacity=".4756" offset=".6195"/><stop stop-color="#98C0E5" stop-opacity=".3103" offset=".7518"/><stop stop-color="#BAD5ED" stop-opacity=".1485" offset=".8812"/><stop stop-color="#E0ECF7" stop-opacity="0" offset="1"/></linearGradient><polyline points="878.5 476.1 947.7 476.1 947.7 497.4 878.5 497.4" fill="url(#l)" transform="translate(15.44 -42.92)" class="st21"/><linearGradient id="h" x1="869.9" gradientUnits="userSpaceOnUse" y1="286.8" gradientTransform="matrix(1 0 0 -1 0 843.1)" x2="947.3" y2="286.8"><stop stop-color="#5B9BD5" offset=".2"/><stop stop-color="#5F9DD6" stop-opacity=".8162" offset=".347"/><stop stop-color="#6AA4D9" stop-opacity=".6437" offset=".485"/><stop stop-color="#7DB0DE" stop-opacity=".4756" offset=".6195"/><stop stop-color="#98C0E5" stop-opacity=".3103" offset=".7518"/><stop stop-color="#BAD5ED" stop-opacity=".1485" offset=".8812"/><stop stop-color="#E0ECF7" stop-opacity="0" offset="1"/></linearGradient><polyline points="869.9 545.7 947.3 545.7 947.3 566.9 869.9 566.9" fill="url(#h)" transform="translate(15.44 -42.92)" class="st22"/><linearGradient id="i" x1="878.9" gradientUnits="userSpaceOnUse" y1="568.9" gradientTransform="matrix(1 0 0 -1 15.44 800.2)" x2="948.2" y2="568.9"><stop stop-color="#5B9BD5" offset=".2"/><stop stop-color="#5F9DD6" stop-opacity=".8162" offset=".347"/><stop stop-color="#6AA4D9" stop-opacity=".6437" offset=".485"/><stop stop-color="#7DB0DE" stop-opacity=".4756" offset=".6195"/><stop stop-color="#98C0E5" stop-opacity=".3103" offset=".7518"/><stop stop-color="#BAD5ED" stop-opacity=".1485" offset=".8812"/><stop stop-color="#E0ECF7" stop-opacity="0" offset="1"/></linearGradient><rect height="21.3" width="69.3" y="220.6" x="894.3" class="st23" fill="url(#i)"/><g stroke-linejoin="round" stroke="#4271c6" stroke-linecap="round" stroke-dasharray="2, 2" stroke-miterlimit="3" stroke-width=".24" fill="none"><line y2="220.6" y1="220.6" x2="964.5" x1="895.2" class="st24"/><line y2="241.9" y1="241.9" x2="964.3" x1="895.2" class="st24"/><line y2="256" y1="256" x2="964.6" x1="895.3" class="st24"/><line y2="277.3" y1="277.3" x2="964.4" x1="895.3" class="st24"/><line y2="362.3" y1="362.3" x2="964.6" x1="895.3" class="st24"/><line y2="383.6" y1="383.6" x2="964.4" x1="895.3" class="st24"/><line y2="433.2" y1="433.2" x2="964.6" x1="895.3" class="st24"/><line y2="454.5" y1="454.5" x2="964.4" x1="895.3" class="st24"/><line y2="502.8" y1="502.8" x2="964.5" x1="887.1" class="st24"/><line y2="524" y1="524" x2="964.3" x1="887.1" class="st24"/></g></svg>
