<?xml version="1.0" standalone="no"?>
<!DOCTYPE svg PUBLIC "-//W3C//DTD SVG 20010904//EN"
 "http://www.w3.org/TR/2001/REC-SVG-20010904/DTD/svg10.dtd">
<svg version="1.0" xmlns="http://www.w3.org/2000/svg"
 width="1997.000000pt" height="1997.000000pt" viewBox="0 0 1997.000000 1997.000000"
 preserveAspectRatio="xMidYMid meet">
<metadata>
Created by potrace 1.11, written by Peter Selinger 2001-2013
</metadata>
<g transform="translate(0.000000,1997.000000) scale(0.100000,-0.100000)"
fill="#000000" stroke="none">
<path d="M6727 18304 c-1 -1 -38 -5 -82 -8 -164 -13 -264 -30 -425 -72 -100
-26 -116 -32 -245 -85 -299 -125 -556 -322 -725 -559 -102 -143 -194 -348
-231 -515 -7 -33 -13 -62 -14 -65 -1 -3 -5 -30 -9 -60 -5 -30 -10 -64 -13 -75
-9 -39 -11 -371 -2 -435 5 -36 12 -83 15 -105 12 -82 63 -264 102 -361 90
-226 260 -508 411 -684 295 -341 491 -706 546 -1020 18 -101 23 -180 20 -325
-2 -88 -6 -171 -9 -185 -4 -14 -9 -40 -12 -59 -9 -53 -11 -62 -34 -136 -27
-85 -91 -214 -134 -269 -58 -76 -167 -173 -244 -218 -127 -74 -291 -133 -427
-153 -23 -3 -52 -7 -65 -10 -114 -22 -513 -23 -627 -1 -12 3 -48 7 -80 11 -33
3 -70 8 -84 10 -13 2 -83 13 -156 25 -72 11 -137 22 -145 24 -7 3 -31 8 -52
11 -21 3 -48 7 -60 10 -12 3 -32 7 -46 9 -14 2 -137 27 -275 55 -137 27 -311
59 -385 71 -180 28 -176 28 -245 36 -33 3 -67 8 -76 9 -74 14 -401 26 -418 16
-4 -3 -11 -85 -14 -181 -3 -96 -8 -186 -11 -200 -2 -14 -7 -59 -10 -100 -4
-41 -8 -86 -10 -100 -3 -14 -7 -56 -11 -95 -3 -38 -8 -79 -11 -90 -2 -11 -6
-40 -9 -65 -8 -80 -15 -144 -20 -170 -2 -14 -7 -52 -10 -85 -4 -33 -8 -67 -10
-75 -2 -8 -6 -40 -10 -70 -3 -30 -8 -73 -11 -95 -3 -22 -7 -51 -9 -65 -2 -14
-9 -68 -15 -120 -6 -52 -13 -106 -16 -120 -2 -14 -7 -47 -9 -75 -3 -27 -8 -61
-10 -75 -2 -14 -7 -56 -10 -95 -4 -38 -8 -77 -10 -87 -2 -9 -7 -48 -10 -85 -4
-37 -8 -75 -11 -83 -2 -8 -6 -49 -9 -90 -3 -41 -7 -86 -10 -100 -2 -14 -7 -61
-10 -105 -4 -44 -8 -96 -10 -115 -2 -19 -7 -71 -10 -115 -4 -44 -8 -100 -10
-125 -26 -333 -26 -836 0 -1010 39 -256 128 -499 250 -685 56 -85 201 -240
300 -320 112 -90 307 -165 475 -181 216 -21 411 0 625 68 97 30 407 179 413
199 2 5 9 9 15 9 18 0 267 174 318 222 146 139 353 280 572 390 90 45 251 117
262 117 3 0 42 11 88 25 74 22 133 36 222 51 248 41 603 14 846 -66 351 -116
580 -312 766 -657 84 -155 168 -392 197 -552 21 -122 25 -149 33 -225 15 -135
8 -546 -11 -640 -2 -11 -7 -40 -10 -65 -4 -25 -8 -52 -10 -60 -1 -8 -6 -33
-11 -55 -31 -164 -100 -367 -179 -525 -239 -482 -592 -784 -1046 -894 -36 -8
-82 -18 -104 -22 -21 -3 -48 -7 -59 -10 -171 -33 -558 -19 -747 27 -19 4 -47
10 -61 13 -46 8 -181 47 -264 76 -280 99 -497 210 -710 365 -306 222 -642 406
-807 441 -103 22 -143 27 -213 26 -225 0 -434 -82 -665 -261 -140 -108 -272
-247 -347 -366 -70 -110 -141 -306 -172 -471 -29 -156 -30 -159 -38 -269 -13
-170 -5 -793 11 -895 3 -14 7 -70 10 -125 4 -55 8 -118 10 -140 6 -54 15 -146
21 -225 3 -36 8 -76 10 -90 2 -14 7 -56 10 -95 4 -38 8 -81 10 -95 2 -14 7
-52 11 -85 3 -33 8 -67 9 -76 2 -9 6 -40 10 -70 6 -57 31 -240 39 -299 5 -30
13 -85 42 -290 3 -19 7 -46 10 -60 2 -14 7 -43 10 -65 3 -22 11 -74 19 -115 7
-41 16 -102 20 -135 3 -33 10 -85 15 -115 5 -30 12 -82 15 -115 3 -33 8 -67
10 -75 2 -8 7 -34 10 -58 13 -91 35 -205 41 -211 3 -3 15 -7 27 -7 12 -1 30
-2 40 -3 11 -1 17 -9 17 -25 0 -14 4 -35 9 -48 l9 -24 5118 2 c2816 0 5120 2
5121 3 1 0 -5 27 -12 58 -7 32 -15 76 -18 98 -5 34 -15 98 -32 205 -2 14 -9
63 -15 110 -6 47 -13 99 -16 115 -3 17 -7 44 -10 60 -2 17 -6 41 -9 55 -3 14
-7 39 -10 55 -3 17 -7 44 -10 60 -3 17 -9 59 -15 95 -14 95 -21 142 -25 170
-9 53 -41 287 -51 370 -3 30 -7 62 -9 70 -1 8 -6 40 -9 70 -4 30 -9 71 -12 90
-2 19 -6 55 -9 80 -3 25 -9 83 -15 130 -12 110 -17 160 -30 300 -17 193 -27
325 -37 495 -10 171 -10 691 0 780 21 203 45 319 93 458 74 213 162 347 327
502 306 287 608 410 912 371 113 -14 308 -88 460 -174 33 -19 80 -46 105 -60
63 -35 283 -180 360 -239 298 -223 802 -426 1160 -467 225 -25 474 -26 615 -1
380 68 635 199 873 449 158 167 319 425 398 640 51 137 81 236 100 331 34 170
41 219 51 345 14 167 7 488 -11 590 -2 14 -10 59 -16 100 -15 89 -60 257 -97
355 -23 63 -106 240 -136 290 -101 171 -176 262 -367 450 -99 98 -145 135
-245 201 -66 44 -227 124 -248 124 -7 0 -17 4 -22 8 -16 14 -141 49 -250 71
-122 25 -233 34 -385 34 -134 0 -242 -11 -373 -39 -182 -38 -378 -117 -605
-246 -123 -70 -295 -188 -332 -228 -40 -43 -272 -225 -320 -250 -14 -7 -27
-16 -30 -20 -6 -7 -188 -112 -265 -152 -61 -32 -189 -83 -270 -109 -255 -79
-566 -84 -790 -12 -159 50 -266 116 -340 210 -63 80 -166 290 -209 425 -30 98
-43 152 -71 303 -26 138 -26 804 -1 965 3 14 7 68 11 120 3 52 8 111 10 130 2
19 6 69 10 110 5 73 11 129 20 200 3 19 7 62 11 95 3 33 8 78 10 100 3 22 7
60 9 85 4 44 12 102 20 151 2 13 6 51 10 84 4 33 8 74 11 90 10 79 34 276 39
325 3 30 8 64 10 75 2 11 7 43 10 70 3 28 7 68 10 90 3 22 7 63 10 90 3 28 8
64 10 80 3 17 7 53 10 80 18 184 24 236 30 280 2 17 7 67 10 110 4 44 8 96 10
115 6 45 18 231 19 295 1 34 -3 49 -11 48 -6 -2 -30 -5 -52 -9 l-39 -6 4 52
c2 28 2 55 -1 60 -3 5 -19 5 -36 0 -29 -9 -227 -43 -319 -55 -25 -3 -72 -10
-105 -15 -53 -8 -109 -15 -181 -25 -11 -2 -45 -8 -75 -14 -30 -5 -71 -13 -91
-16 -21 -3 -55 -7 -75 -10 -21 -3 -50 -8 -65 -11 -15 -3 -39 -7 -55 -9 -15 -2
-41 -6 -58 -9 -16 -2 -55 -7 -85 -11 -30 -3 -77 -10 -105 -15 -27 -5 -72 -12
-100 -15 -27 -3 -79 -10 -115 -15 -36 -5 -92 -12 -125 -15 -33 -3 -85 -10
-115 -15 -30 -5 -86 -12 -125 -15 -38 -4 -81 -8 -95 -10 -36 -5 -138 -15 -300
-30 -41 -4 -91 -8 -110 -10 -19 -2 -80 -7 -135 -10 -55 -4 -118 -9 -140 -10
-275 -23 -798 -23 -955 1 -237 35 -389 79 -543 155 -157 78 -256 162 -366 309
-31 41 -59 76 -63 78 -5 2 -8 7 -8 12 0 4 -16 33 -35 65 -63 105 -118 253
-133 360 -8 60 -8 214 0 270 31 200 231 583 473 905 115 153 239 390 327 625
39 105 95 291 108 363 5 31 12 68 15 82 28 139 40 483 23 635 -9 72 -36 219
-48 260 -91 296 -193 466 -411 685 -138 138 -187 181 -300 259 -41 28 -79 54
-85 58 -43 32 -270 147 -339 172 -33 12 -69 26 -80 31 -28 13 -219 66 -285 79
-30 6 -66 14 -80 16 -14 3 -47 8 -75 11 -27 4 -53 8 -56 10 -15 9 -473 26
-482 18z"/>
</g>
</svg>
