<svg xmlns:rdf="http://www.w3.org/1999/02/22-rdf-syntax-ns#" xmlns="http://www.w3.org/2000/svg" height="300" width="200" version="1.1" xmlns:cc="http://creativecommons.org/ns#" xmlns:dc="http://purl.org/dc/elements/1.1/" viewBox="0 0 200.00001 300">
<path fill="#ccc" d="m172 253-39.9-118c18-17 26-42.2 17-66.9-8-25.9-33-42.3-58.4-43.1l18.4 55.8-38.5 13.2-19.7-56.3c-20.8 15.7-29.3 43.9-20.6 70.3 8.32 24.7 29.6 40.6 53.5 42.7l39.9 118c1.75 5.19 6.96 7.78 12.2 6.02l29.9-10.1c6.06-1.32 9.07-7.4 6.89-11.7z"/>
<path d="m172 253-39.9-118c17.7-16.1 25-41.7 16.7-66.4-8.76-26-33.1-42.4-58.7-43.1l18.8 55.8-19.1 6.81 57.7 182 17.5-5.76c6.06-1.32 9.07-7.4 6.89-11.7z" fill="#999"/>
<path d="m172 253-39-119c17-16 25-41.2 16-65.9-8-25.9-33-42.3-58.4-43.1l18.4 55.8-38.5 13.2-19.7-56.3c-20.8 15.7-29.3 43.9-20.6 70.3 8.32 24.7 29.6 40.6 53.5 42.7l40.3 117c1.75 5.19 6.96 7.78 12.2 6.02l30-10c6.06-1.32 9.07-7.4 6.89-11.7z" stroke="#fff" stroke-width="15" fill="none"/>
<path d="m172 253-39-119c17-16 25-41.2 16-65.9-8-25.9-33-42.3-58.4-43.1l18.4 55.8-38.5 13.2-19.7-56.3c-20.7 15.7-29.3 43.9-20.6 69.8 8.32 24.7 29.6 40.6 53.5 42.7l40.3 118c1.75 5.19 6.96 7.78 12.2 6.02l29.9-10.1c6.06-1.32 9.07-7.4 6.89-11.7z" stroke="#444" stroke-width="9" fill="none"/>
</svg>
